<?xml version="1.0" encoding="utf-8"?>
<!-- Generator: Adobe Illustrator 24.0.2, SVG Export Plug-In . SVG Version: 6.00 Build 0)  -->
<svg version="1.1" id="Capa_1" xmlns="http://www.w3.org/2000/svg" xmlns:xlink="http://www.w3.org/1999/xlink" x="0px" y="0px"
	 viewBox="0 0 955.1 303.2" style="enable-background:new 0 0 955.1 303.2;" xml:space="preserve">
<style type="text/css">
	.st0{fill:#41AF6C;}
	.st1{fill:#EFE64E;}
	.st2{fill:#4C4122;}
	.st3{fill:#EDDE19;}
	.st4{fill:#D5D2D3;}
	.st5{opacity:0.5;}
	.st6{fill:#FFFFFF;}
	.st7{clip-path:url(#SVGID_2_);}
	.st8{fill:#939698;}
	.st9{fill:#96989B;}
	.st10{fill:#969A9C;}
	.st11{fill:#9A9C9E;}
	.st12{fill:#9B9DA0;}
	.st13{fill:#9C9EA2;}
	.st14{fill:#A0A0A3;}
	.st15{fill:#A0A2A5;}
	.st16{fill:#A2A4A7;}
	.st17{fill:#A4A5A9;}
	.st18{fill:#A6A6A9;}
	.st19{fill:#A8A9AC;}
	.st20{fill:#AAAAAD;}
	.st21{fill:#ACACAF;}
	.st22{fill:#AEAEB0;}
	.st23{fill:#B0B0B3;}
	.st24{fill:#B1B0B3;}
	.st25{fill:#B3B3B5;}
	.st26{fill:#B4B4B7;}
	.st27{fill:#B6B6B8;}
	.st28{fill:#B7B7B9;}
	.st29{fill:#B9B8BA;}
	.st30{fill:#BABABC;}
	.st31{fill:#BCBBBD;}
	.st32{fill:#BEBCBE;}
	.st33{fill:#BEBDC0;}
	.st34{fill:#C0BFC1;}
	.st35{fill:#C2C1C3;}
	.st36{fill:#C4C3C5;}
	.st37{fill:#C5C3C6;}
	.st38{fill:#C6C5C7;}
	.st39{fill:#C7C5C7;}
	.st40{fill:#C8C6C8;}
	.st41{fill:#CAC7CA;}
	.st42{fill:#CAC9CA;}
	.st43{fill:#CBC9CB;}
	.st44{fill:#CDCACC;}
	.st45{fill:#CDCBCD;}
	.st46{fill:#CECCCE;}
	.st47{fill:#CECDCF;}
	.st48{fill:#CFCED0;}
	.st49{fill:#D0CFD1;}
	.st50{fill:#D1D0D2;}
	.st51{fill:#D2D0D2;}
	.st52{fill:#D3D1D4;}
	.st53{fill:#D5D3D5;}
	.st54{fill:#D5D4D5;}
	.st55{fill:#D7D6D8;}
	.st56{fill:#D6D7D7;}
	.st57{fill:#D8D7D9;}
	.st58{fill:#D8D8DA;}
	.st59{fill:#D9D9DB;}
	.st60{fill:#DADADB;}
	.st61{fill:#DCDADB;}
	.st62{fill:#DCDBDB;}
	.st63{fill:#DCDBDC;}
	.st64{fill:#DCDBDD;}
	.st65{fill:#DDDCDE;}
	.st66{fill:#DEDDDE;}
	.st67{fill:#DEDDDF;}
	.st68{fill:#DFDFDF;}
	.st69{fill:#E0DFE0;}
	.st70{fill:#E0DFE1;}
	.st71{fill:#E1E0E0;}
	.st72{fill:#E2E0E1;}
	.st73{fill:#E2E1E1;}
	.st74{fill:#E2E2E2;}
	.st75{fill:#E3E1E2;}
	.st76{clip-path:url(#SVGID_4_);}
	.st77{fill:#929397;}
	.st78{fill:#909294;}
	.st79{fill:#8E9194;}
	.st80{fill:#8E9094;}
	.st81{fill:#8E8F92;}
	.st82{fill:#8C8E91;}
	.st83{fill:#8B8D91;}
	.st84{fill:#8A8B8F;}
	.st85{fill:#8A8A8E;}
	.st86{fill:#888A8E;}
	.st87{fill:#88898C;}
	.st88{fill:#87888A;}
	.st89{fill:#868689;}
	.st90{fill:#848588;}
	.st91{fill:#848487;}
	.st92{fill:#828286;}
	.st93{fill:#828385;}
	.st94{fill:#818084;}
	.st95{fill:#808083;}
	.st96{fill:#818083;}
	.st97{fill:#7F7E82;}
	.st98{fill:#7E7E81;}
	.st99{fill:#7E7D80;}
	.st100{fill:#7C7B7F;}
	.st101{fill:#7C7A7D;}
	.st102{fill:#7B7A7D;}
	.st103{fill:#7B777B;}
	.st104{fill:#79767B;}
	.st105{fill:#78767A;}
	.st106{fill:#767579;}
	.st107{fill:#777479;}
	.st108{fill:#767377;}
	.st109{fill:#757276;}
	.st110{fill:#747174;}
	.st111{fill:#737074;}
	.st112{fill:#736F74;}
	.st113{fill:#726E72;}
	.st114{fill:#726D71;}
	.st115{fill:#706C70;}
	.st116{fill:#6F6B70;}
	.st117{fill:#6F6A6F;}
	.st118{fill:#6E696E;}
	.st119{fill:#6E686D;}
	.st120{fill:#6B676C;}
	.st121{fill:#6B676B;}
	.st122{fill:#6A666A;}
	.st123{fill:#696569;}
	.st124{fill:#686468;}
	.st125{fill:#676367;}
	.st126{fill:#676267;}
	.st127{fill:#666166;}
	.st128{fill:#656065;}
	.st129{fill:#645F64;}
	.st130{fill:#625E63;}
	.st131{fill:#625D62;}
	.st132{fill:#615C61;}
	.st133{fill:#605B60;}
	.st134{fill:#605A5F;}
	.st135{fill:#5F595E;}
	.st136{fill:#5E585D;}
	.st137{fill:#5D585C;}
	.st138{fill:#5C575C;}
	.st139{fill:#5C565B;}
	.st140{fill:#5B555A;}
	.st141{fill:#5A5459;}
	.st142{fill:#595358;}
	.st143{fill:#585257;}
	.st144{fill:#585156;}
	.st145{fill:#574F54;}
	.st146{fill:#564F54;}
	.st147{fill:#554E54;}
	.st148{fill:#544E52;}
	.st149{fill:#554D52;}
	.st150{fill:#534C52;}
	.st151{fill:#534B51;}
	.st152{fill:#524B4F;}
	.st153{fill:#514A4F;}
	.st154{fill:#50494E;}
	.st155{fill:#4F484E;}
	.st156{fill:#4F464C;}
	.st157{fill:#4E474C;}
	.st158{fill:#4D454C;}
	.st159{fill:#4D454B;}
	.st160{fill:#4C4449;}
	.st161{fill:#4B4449;}
	.st162{fill:#4B4248;}
	.st163{fill:#4A4247;}
	.st164{fill:#494146;}
	.st165{fill:#484145;}
	.st166{fill:#483F44;}
	.st167{clip-path:url(#SVGID_6_);}
	.st168{fill:#FEFFFF;}
	.st169{fill:#FEFEFE;}
	.st170{fill:#FDFDFD;}
	.st171{fill:#FCFCFC;}
	.st172{fill:#FBFBFB;}
	.st173{fill:#FAFAFB;}
	.st174{fill:#F9F8FA;}
	.st175{fill:#F9F8F9;}
	.st176{fill:#F8F6F7;}
	.st177{fill:#F6F6F7;}
	.st178{fill:#F5F5F6;}
	.st179{fill:#F4F3F4;}
	.st180{fill:#F3F3F4;}
	.st181{fill:#F3F2F3;}
	.st182{fill:#F2F1F2;}
	.st183{fill:#F1F1F2;}
	.st184{fill:#F0F0F1;}
	.st185{fill:#EFEFF0;}
	.st186{fill:#EFEFEF;}
	.st187{fill:#EFEEEF;}
	.st188{fill:#EEEDEE;}
	.st189{fill:#EEECED;}
	.st190{fill:#EDEBEC;}
	.st191{fill:#ECEBEB;}
	.st192{fill:#EAE9EA;}
	.st193{fill:#E9E8EA;}
	.st194{fill:#E9E8E8;}
	.st195{fill:#E8E7E8;}
	.st196{fill:#E8E6E7;}
	.st197{fill:#E6E5E6;}
	.st198{fill:#E4E4E5;}
	.st199{fill:#E3E3E4;}
	.st200{fill:#DFDFE0;}
	.st201{fill:#DDDDDE;}
	.st202{fill:#DCDCDD;}
	.st203{fill:#D9DADB;}
	.st204{fill:#D8D8D8;}
	.st205{fill:#D5D4D6;}
	.st206{fill:#D5D5D6;}
	.st207{fill:#D3D3D4;}
	.st208{fill:#D2D2D3;}
	.st209{fill:#D2D1D2;}
	.st210{fill:#D0CFD0;}
	.st211{fill:#CFCFD1;}
	.st212{fill:#CECECF;}
	.st213{fill:#CECDCE;}
	.st214{fill:#CDCCCD;}
	.st215{fill:#CCCBCC;}
	.st216{fill:#CBCACB;}
	.st217{fill:#CBC9CA;}
	.st218{fill:#C9C8CA;}
	.st219{fill:#C8C7C8;}
	.st220{fill:#C7C6C7;}
	.st221{fill:#C6C6C6;}
	.st222{fill:#C5C4C5;}
	.st223{fill:#C4C4C5;}
	.st224{fill:#C2C2C4;}
	.st225{fill:#C1C0C2;}
	.st226{fill:#BFBEC1;}
	.st227{fill:#BEBEC0;}
	.st228{fill:#BEBDBE;}
	.st229{fill:#BCBCBD;}
	.st230{clip-path:url(#SVGID_8_);}
	.st231{fill:#6E6C70;}
	.st232{fill:#6D6B6E;}
	.st233{fill:#6C6A6E;}
	.st234{fill:#6D6A6E;}
	.st235{fill:#6B696D;}
	.st236{fill:#6B686D;}
	.st237{fill:#6A676C;}
	.st238{fill:#69666B;}
	.st239{fill:#69666A;}
	.st240{fill:#686569;}
	.st241{fill:#676468;}
	.st242{fill:#666367;}
	.st243{fill:#636166;}
	.st244{fill:#636065;}
	.st245{fill:#625F63;}
	.st246{fill:#615E62;}
	.st247{fill:#605D61;}
	.st248{fill:#5F5B60;}
	.st249{fill:#5E5A5E;}
	.st250{fill:#5C585D;}
	.st251{fill:#5B565B;}
	.st252{clip-path:url(#SVGID_10_);}
	.st253{fill:#1A1415;}
</style>
<g>
	<g>
		<g>
			<g>
				<path class="st0" d="M680.5,120c0.5-11.9,0.8-23.8,1.4-35.7c0.8-15.9,1.9-31.8,2.5-47.7c0.2-4.2,1.9-5.1,5.6-4.8
					c14.1,1.2,28.2,2.2,42.4,3.4c6,0.5,12,1,18.4,1.5c-1.5,32.3-2.9,64.2-4.4,97.1c1.6-1,2.5-1.3,2.9-1.9
					c24.2-32.5,77.2-27.9,92.9,14.5c12.7,34.4,9.5,68.3-9.7,99.5c-18.7,30.5-53.3,30.6-75.8,16.5c-7.7-4.8-15.3-6.2-23.7-7
					c-19.2-1.8-38.3-3.6-57.5-5.3c-13.3-1.2-26.6-2.3-40-3.3c-8.9-0.7-17.8-0.5-26.6-1.8c-15-2.2-26.2-10.3-33.2-23.9
					c-0.3-0.5-0.7-1-1.7-2.5c-0.7,20.4-1.3,39.8-2,60c-7.8-0.5-14.9-0.9-22-1.5c-13.3-1.1-26.6-2.5-39.9-3.5
					c-3.1-0.2-4.2-1.2-4.2-4.3c0.4-11.8,0.8-23.6,0.9-35.3c0.1-16.7-0.1-33.4-0.2-50.1c0-2.6-0.5-5.2-0.8-8.3
					c-5,5.6-9.3,10.9-14.1,15.7c-5.5,5.5-12.2,9.3-20,10.5c-3,0.5-3.6,2-3.5,4.6c0.5,12.9,1.1,25.8,1.5,38.7
					c0.2,4.1,0.2,8.3,0.4,12.4c0.2,3.1-1.2,3.9-4,3.6c-13.3-1.4-26.6-2.8-39.9-4.2c-6.5-0.7-13-1.3-19.4-2.2
					c-1.2-0.2-3.2-1.5-3.3-2.4c-0.1-3.9-2.7-4.2-5.5-4.4c-16.5-1.3-33-2.4-49.5-4.1c-7.5-0.8-14.8-2.8-22.2-4c-4-0.6-8.1-0.7-12.8-1
					c0.1,2.1,0.2,3.6,0.3,5.1c0.7,5.8,0.4,6.3-5.3,5.8c-7.6-0.6-15.2-1.4-22.8-2.1c-9.7-0.9-19.3-1.6-29-2.8
					c-3.3-0.4-4.8,0.9-6.3,3.6c-8.2,14.2-19.4,25.2-36.1,28.2c-26.1,4.7-51.3-5-63.1-30.8c-0.6-1.3-1.3-2.5-2.2-4.4
					c-5,5.5-9.6,10.6-14.9,16.5c-11.5-12-22.8-23.7-33.9-35.2c0,5.2,0,10.8,0,16.3c0,0.6,0.2,1.3,0.3,1.9c0.9,7.1,0.2,7.6-7,6.7
					c-19.4-2.3-38.9-4.4-58.4-6.4c-4.1-0.4-6.8-1.1-6.8-6.2c-0.5-41.1-1.7-82.2-1.6-123.3c0-23.2,2.2-46.4,3.3-69.6
					c0.2-4,2.1-4.7,5.5-4.4c20.4,2,40.9,3.9,61.3,5.8c3.7,0.3,5.6,1.5,4.5,5.7c-0.5,2.2-0.1,4.6,0.8,7.3c4.5-9.5,9.1-19.1,13.9-29.3
					c22.1,8.7,44,17.4,66.5,26.3c-1,2.2-1.6,3.9-2.5,5.6c-15.2,27.1-30.3,54.2-45.7,81.2c-2.3,4-2.8,6.8,0.3,10.6
					c4.8,5.8,9.1,12.1,14.4,19.3c6-19.2,14.6-35,31.3-45.8c-3.6-4.7-6.9-9.2-11.1-14.7c1-0.5,1.9-0.8,2.7-1.4
					c23.4-15.5,46.7-31.1,73-41.5c4.1-1.6,6-0.9,7.9,2.7c3.3,6,7.1,11.7,10.5,17.6c1.5,2.7,3.3,4.3,6.7,4.4
					c7.8,0.4,15.6,1.1,23.3,1.5c3.6,0.2,6.7,0.6,7.2,3.8c7.1,0,14.2-1.4,20.5,0.3c9.3,2.5,16.1,0,24-4.6c16.2-9.4,40.9-4,53.8,10.4
					c0.7,0.8,1.5,1.6,2.7,3c0.3-1.6,0.7-2.5,0.7-3.5c1.3-20.2,2.6-40.3,3.9-60.5c0.2-3.8,1.4-5.3,5.9-4.8
					c16.4,2.1,32.9,3.4,49.4,5.2c3.1,0.3,6.9-0.4,8.4,3.9c0.2,0.6,2.3,0.6,3.6,0.6c20.8-0.1,34.4,10.8,42.7,28.9
					c6.5,14,7.6,28.8,5.9,43.9c-0.8,7.6-0.5,8.2,7.1,8.6c1.4,0.1,2.9,0.2,4.3,0.5c4.9,0.9,9,0.4,13-3.5c9-8.6,20-11,31.9-7.5
					c4.7,1.4,6.6,0,9-3.7c9.8-15.5,23.4-26,42.3-26.8c20.9-0.9,37,7.8,47,26.7c1,1.9,1.9,3.9,2.9,5.9
					C679.9,120.1,680.2,120,680.5,120z"/>
			</g>
		</g>
		<g>
			<g>
				<g>
					<path class="st1" d="M156.4,60.9c-9.8,19.6-29.1,53.2-48.9,83.8c14.1,22.3,30.6,44.7,48.4,60.2L132.8,231
						c-20.8-20.3-39.4-47.4-55.7-77.5c0,24.1,0.3,49.9,1.8,74.3L44.4,224c-1.3-27.4-1.8-53.4-1.8-80c0-32.6,0.8-65,2.5-88.8
						l34.4,3.3c-1.8,21.8-2.5,47.9-2.5,77c20.1-33.1,38.9-68,47.7-87.1L156.4,60.9z"/>
				</g>
				<g>
					<path class="st2" d="M132.9,233.4l-1.2-1.2c-18.3-17.9-36.1-42.2-53-72.4c0,21.2,0.3,45.2,1.7,67.9l0.1,1.9l-37.6-4.1l-0.1-1.4
						c-1.2-25.8-1.8-52-1.8-80.1c0-35.4,0.9-67,2.5-88.9l0.1-1.6l37.6,3.6l-0.1,1.6c-1.6,19.3-2.4,43.2-2.5,71.1
						c17.6-29.4,35.6-62.5,44.6-81.9l0.6-1.4l34.7,13.8l-0.8,1.6c-10.6,21.1-30.4,55.2-48.5,83.1c16.3,25.9,32.4,45.7,47.6,59
						l1.2,1.1L132.9,233.4z M75.4,147.2l3,5.6c17.2,31.8,35.5,57.3,54.2,76l20.9-23.6c-15.3-13.6-31.3-33.6-47.5-59.5l-0.5-0.9
						l0.6-0.9c17.7-27.3,37.3-60.8,48.1-82.1l-28.6-11.3c-9.7,20.9-28.9,55.9-47.1,85.9l-3,4.9v-5.8c0-29.7,0.8-55.1,2.4-75.6
						l-31.2-3c-1.5,21.8-2.4,52.7-2.4,87.1c0,27.6,0.6,53.3,1.7,78.6l31.1,3.4c-1.4-24.5-1.6-50.3-1.6-72.5V147.2z"/>
				</g>
			</g>
			<g>
				<g>
					<path class="st1" d="M207.3,139.4c31.1,0,39.9,31.6,39.9,55.5c0,32.6-13.6,69.8-42.4,69.8c-21.6,0-41.9-10.8-41.9-54
						C162.9,183.6,174.4,139.4,207.3,139.4z M204.8,241.3c7.8,0,13-28.1,13-48.9c0-12.8-2.3-29.6-10.5-29.6
						c-10,0-15.1,33.1-15.1,50.2C192.2,235.7,198.5,241.3,204.8,241.3z"/>
				</g>
				<g>
					<path class="st2" d="M204.8,266.2c-28.9,0-43.5-18.7-43.5-55.6c0-29.3,12.3-72.9,46-72.9c30.6,0,41.5,29.5,41.5,57.1
						C248.8,230.3,233.7,266.2,204.8,266.2z M207.3,141c-31.2,0-42.8,42.7-42.8,69.7c0,35.2,13.2,52.3,40.3,52.3
						c26.8,0,40.8-34.3,40.8-68.2C245.6,168.8,235.5,141,207.3,141z M204.8,242.9c-9.4,0-14.2-10.1-14.2-30
						c0-13.3,4.1-51.8,16.7-51.8c11,0,12.1,21.8,12.1,31.2C219.4,210,215.1,242.9,204.8,242.9z M207.3,164.3
						c-7.7,0-13.5,29.5-13.5,48.6c0,12.2,1.9,26.7,10.9,26.7c5.6,0,11.4-24.3,11.4-47.3C216.2,179.4,213.9,164.3,207.3,164.3z"/>
				</g>
			</g>
			<g>
				<g>
					<path class="st1" d="M797.5,129.6c31.1,0,39.9,31.6,39.9,55.5c0,32.6-13.6,69.8-42.4,69.8c-21.6,0-41.9-10.8-41.9-54
						C753.1,173.8,764.6,129.6,797.5,129.6z M795,231.5c7.8,0,13-28.1,13-48.9c0-12.8-2.3-29.6-10.5-29.6c-10,0-15.1,33.1-15.1,50.2
						C782.4,226,788.7,231.5,795,231.5z"/>
				</g>
				<g>
					<path class="st2" d="M795,256.5c-28.9,0-43.5-18.7-43.5-55.6c0-29.3,12.3-72.9,46-72.9c30.6,0,41.5,29.5,41.5,57.1
						C839,220.5,823.9,256.5,795,256.5z M797.5,131.2c-31.2,0-42.8,42.7-42.8,69.7c0,35.2,13.2,52.3,40.3,52.3
						c26.8,0,40.8-34.3,40.8-68.2C835.8,159,825.7,131.2,797.5,131.2z M795,233.1c-9.4,0-14.2-10.1-14.2-30
						c0-13.3,4.1-51.8,16.7-51.8c11,0,12.1,21.8,12.1,31.2C809.6,200.2,805.3,233.1,795,233.1z M797.5,154.6
						c-7.7,0-13.4,29.5-13.4,48.6c0,12.2,1.9,26.7,10.9,26.7c5.6,0,11.4-24.3,11.4-47.3C806.4,169.7,804.1,154.6,797.5,154.6z"/>
				</g>
			</g>
			<g>
				<g>
					<path class="st1" d="M286.6,109.8c1.8,8,3,16.6,4.3,24.6c8-12.5,16.6-20.8,26.3-20.8c10.8,0,18.3,4,23.3,10.5
						c7.3-10.5,16.1-19.1,25.8-19.1c29.6,0,34.9,28.1,34.9,52.4c0,21.1-1.8,44.4-5,71.8l-29.1-2.5c2.8-27.1,4.8-50.4,4.8-73
						c0-10.5-1.5-23.1-8-23.1c-4.3,0-12.5,16.8-14.6,36.4c-0.3,16.8-0.8,35.9-2,56l-29.4-2.8c1.3-22.1,2-39.9,2-57.7
						c0-10.5-1.3-23.3-6.3-23.3c-5.3,0-15.8,22.3-19.6,43.2c0.3,15.6,1,31.4,2.3,47.7l-29.4-2.8c-1.8-22.6-2.8-45.4-2.8-68
						c0-16.8,0.5-34.1,1.5-50.9L286.6,109.8z"/>
				</g>
				<g>
					<path class="st2" d="M298.1,231.8l-32.6-3.1l-0.1-1.3c-1.8-23.5-2.8-46.5-2.8-68.1c0-17.1,0.5-34.3,1.5-51l0.1-1.6l23.7,1.7
						l0.3,1.2c1.5,6.7,2.6,13.8,3.6,20.6c8.6-12.3,16.7-18.1,25.4-18.1c9.8,0,17.6,3.2,23.2,9.5c8.7-12,17.4-18,25.9-18
						c24.2,0,36.5,18.2,36.5,54.1c0,20.3-1.6,43.2-5,72l-0.2,1.6l-32.3-2.8l0.2-1.6c2.9-28.8,4.8-51.1,4.8-72.9
						c0-13.4-2.4-21.5-6.4-21.5c-2.3,0-10.8,14.1-13,34.9c-0.3,21.2-0.9,39-2,55.9l-0.1,1.7l-32.6-3.1l0.1-1.6
						c1.4-25.1,2-41.8,2-57.6c0-14.9-2.4-21.7-4.7-21.7c-3.4,0-13.9,19.4-18,41.8c0.3,15.2,1,30.8,2.3,47.3L298.1,231.8z
						 M268.5,225.8l26.1,2.5c-1.2-15.9-1.9-30.9-2.1-45.9c3.6-20.3,14.1-44.8,21.2-44.8c5.2,0,7.9,8.4,7.9,24.9
						c0,15.6-0.6,32-1.9,56.3l26.2,2.5c1-16.3,1.6-33.6,1.9-54.2c1.9-18.9,10.1-38,16.2-38c6.3,0,9.6,8.5,9.6,24.7
						c0,21.5-1.8,43.4-4.6,71.6l25.9,2.2c3.3-27.9,4.8-50.2,4.8-70c0-34.2-10.9-50.8-33.3-50.8c-7.9,0-16.1,6.2-24.5,18.4l-1.3,1.8
						l-1.3-1.7c-5.1-6.6-12.5-9.9-22.1-9.9c-8.3,0-16.2,6.4-25,20.1l-2.3,3.6l-1.1-6.8c-1.1-6.9-2.2-13.9-3.6-20.7l-18-1.3
						c-0.9,16.1-1.4,32.7-1.4,49.2C265.9,180.4,266.7,202.8,268.5,225.8z"/>
				</g>
			</g>
			<g>
				<g>
					<path class="st1" d="M455.5,51l-0.8,20.8c6-9.3,15.8-15.3,25.8-15.3c18.3,0,30.4,17.8,30.4,43.7c0,39.6-20.6,76.8-38.9,76.8
						c-6.5,0-12.3-0.8-17.3-2.5c0.3,20.8,0.8,41.2,1.8,60.5l-29.4-3c-0.8-27.1-1.3-56.7-1.3-84.8c0-37.1,1-72.5,3.5-98.9L455.5,51z
						 M454.7,146.6c2,2.8,4.5,5.3,7.5,5.3c9.3,0,19.3-21.3,19.3-45.4c0-13.3-4-25.3-8.3-25.3c-8,0-13.3,11.5-18.3,25.3
						C454.7,119.5,454.7,133.5,454.7,146.6z"/>
				</g>
				<g>
					<path class="st2" d="M458.2,236.7l-32.6-3.3l0-1.4c-0.8-29.6-1.3-58.9-1.3-84.9c0-40.6,1.2-74.9,3.5-99l0.2-1.6l29.2,3.1
						l-0.6,17.2c6.4-7.4,15.2-11.9,24.1-11.9c19.1,0,32,18.2,32,45.3c0,38.8-20.4,78.4-40.5,78.4c-6,0-11.2-0.6-15.7-1.9
						c0.3,22.3,0.9,41.4,1.7,58.2L458.2,236.7z M428.7,230.4l26.1,2.7c-0.8-16.9-1.4-36.2-1.7-58.7l0-2.3l2.2,0.8
						c4.6,1.6,10.1,2.4,16.8,2.4c16.4,0,37.3-35.4,37.3-75.2c0-25.2-11.6-42.1-28.8-42.1c-9.3,0-18.7,5.6-24.5,14.6l-3.2,4.9
						l0.9-25.1l-23-2.4c-2.2,24-3.4,57.5-3.4,97.1C427.5,172.6,427.9,201.4,428.7,230.4z M462.2,153.5c-3,0-5.9-1.9-8.8-5.9
						l-0.3-0.4v-0.5c0-13.3,0-27.1,0.2-40.2l0.1-0.5c4.9-13.4,10.4-26.4,19.8-26.4c6.1,0,9.9,14,9.9,27
						C483.2,130.6,473,153.5,462.2,153.5z M456.3,146c2.1,2.8,4.1,4.2,5.9,4.2c8,0,17.7-20.2,17.7-43.8c0-13.9-4.3-23.7-6.7-23.7
						c-6.6,0-11.5,9.6-16.7,24C456.3,119.5,456.3,133,456.3,146z"/>
				</g>
			</g>
			<g>
				<g>
					<path class="st1" d="M584.4,173.5c-2.5-1.8-6-2.8-10-2.8c-7.8,0-12.8,11-15.8,26.6c0.3,8.8,0.5,17.6,0.5,26.6
						c0,14.1-0.3,28.1-1,43.2l-29.1-2.5c0.3-12.3,0.8-24.3,0.8-40.7c0-26.6-1-51.9-4.5-71l18.8,2c1.3,5,2.5,9,4,12.8
						c7.5-16.1,16.6-26.3,24.8-26.3c7.3,0,13.8,4,18.1,9L584.4,173.5z"/>
				</g>
				<g>
					<path class="st2" d="M559.6,268.9l-32.3-2.8l0-1.5c0.1-3.6,0.2-7.2,0.3-10.9c0.2-9,0.5-18.2,0.5-29.7c0-31.6-1.4-54.1-4.5-70.7
						l-0.4-2.1l22.1,2.4l0.3,1.1c0.9,3.5,1.7,6.4,2.6,9.1c7.8-15.4,16.5-23.9,24.6-23.9c7,0,14.2,3.6,19.3,9.6l0.6,0.7l-7.4,26.1
						l-1.9-1.3c-2.3-1.6-5.5-2.5-9.1-2.5c-6.1,0-11,8.7-14.2,25.3c0.3,8.6,0.5,17.4,0.5,26.3c0,15.7-0.3,29.5-1,43.2L559.6,268.9z
						 M530.6,263.1l25.9,2.2c0.6-13.2,0.9-26.4,0.9-41.4c0-8.9-0.2-17.7-0.5-26.2l0-0.2l0-0.6c3.6-18.5,9.4-27.9,17.4-27.9
						c3.4,0,6.5,0.7,9.1,1.9l5.7-20.2c-4.5-4.9-10.5-7.8-16.3-7.8c-7.2,0-15.9,9.5-23.4,25.4l-1.6,3.4l-1.4-3.4
						c-1.4-3.5-2.6-7.3-3.8-11.9l-15.6-1.7c2.8,16.6,4.2,38.7,4.2,69.2c0,11.5-0.2,20.8-0.5,29.8C530.8,256.9,530.7,260,530.6,263.1
						z"/>
				</g>
			</g>
			<g>
				<g>
					<path class="st1" d="M601.5,151.5c4.5-23.3,18.1-46.9,40.4-46.9c26.6,0,34.9,24.3,34.9,50.7c0,22.8-1.3,48.9-3,75.8l-21.1-1.8
						l-2-8c-6.5,3.8-14.3,6.8-22.3,6.8c-18.8,0-30.1-12-30.1-30.1c0-23.3,24.8-38.9,50.2-39.4v-6.8c0-8.5-1-19.8-9.5-19.8
						c-6.8,0-12.3,11.8-14.3,21.8L601.5,151.5z M647.7,181.9c-17.3,1.5-23.8,10-23.8,16.1c0,5,3.8,8,9.5,8c3.8,0,8.3-0.8,13.8-3
						L647.7,181.9z M195.2,111.1c14.6-9.5,28.9-18.8,46.2-26.3l13.6,22.3c-15.8,3.8-31.4,9.5-48.4,18.3L195.2,111.1z"/>
				</g>
				<g>
					<path class="st2" d="M675.3,232.8l-23.9-2l-1.8-7.1c-7.4,3.9-14.5,6-21.3,6c-19.3,0-31.7-12.5-31.7-31.7
						c0-24.5,25.2-39.9,50.2-41v-5.2c0-12.4-2.5-18.2-7.9-18.2c-5.4,0-10.7,10.4-12.7,20.5l-0.3,1.4l-26.3-2.6l0.3-1.7
						c4.3-22.2,17.9-48.2,42-48.2c23.5,0,36.5,18.6,36.5,52.3c0,20.3-1,44.4-3,75.9L675.3,232.8z M654,227.8l18.3,1.5
						c2-30.6,2.9-54.2,2.9-74c0-18.3-4.3-49.1-33.3-49.1c-21.5,0-34.1,23.3-38.5,43.9l19.9,1.9c2.4-10.7,8.2-21.7,15.6-21.7
						c11.1,0,11.1,15.6,11.1,21.4v8.4l-1.6,0c-23.9,0.5-48.6,14.7-48.6,37.8c0,17.6,10.9,28.5,28.5,28.5c6.7,0,14-2.2,21.5-6.6
						l1.8-1.1L654,227.8z M633.4,207.6c-6.8,0-11.1-3.8-11.1-9.6c0-7.4,7.9-16.2,25.3-17.7l1.8-0.2l-0.6,23.9l-1,0.4
						C642.6,206.5,637.9,207.6,633.4,207.6z M646,183.6c-16.2,1.9-20.6,10.1-20.6,14.3c0,4,3,6.4,7.9,6.4c3.8,0,7.8-0.8,12.2-2.5
						L646,183.6z M206.1,127.4l-13.2-16.7l1.5-1c14.1-9.2,28.6-18.7,46.4-26.5l1.3-0.6l15.4,25.4l-2.1,0.5
						c-16.2,3.8-31.4,9.6-48.1,18.2L206.1,127.4z M197.6,111.5l9.4,11.9c15.7-8,30.2-13.5,45.5-17.3l-11.7-19.3
						C224.4,94,210.7,102.9,197.6,111.5z"/>
				</g>
			</g>
			<g>
				<g>
					<path class="st1" d="M737,44.3c-2.3,38.1-3.8,79.5-3.8,122.2c0,21.3,0,43.2,1.3,63.7l-29.6-2.8c-0.8-19.6-1-40.7-1-61
						c0-42.7,1.5-86.6,3.8-124.5L737,44.3z"/>
				</g>
				<g>
					<path class="st2" d="M736.2,232.1l-32.9-3.1l-0.1-1.4c-0.7-17.4-1-37.9-1-61c0-39.6,1.3-83.9,3.8-124.6l0.1-1.6l32.6,2.5
						l-0.1,1.6c-2.5,42.1-3.8,83.2-3.8,122.1c0,21.2,0,43.1,1.3,63.6L736.2,232.1z M706.4,226.1l26.3,2.5c-1.1-20.1-1.1-41.4-1.1-62
						c0-38.5,1.2-79.1,3.7-120.7l-26.2-2c-2.4,40.2-3.7,83.7-3.7,122.7C705.5,189,705.8,209,706.4,226.1z"/>
				</g>
			</g>
		</g>
		<g>
			<g>
				<g>
					<path class="st1" d="M869.3,122.7c-11.9,0-22.8-7-22.8-24.5c0-17.3,11.2-28.2,23.6-28.2c11.8,0,22.5,7.1,22.5,24.5
						C892.6,108.8,883.6,122.7,869.3,122.7z M884.9,94.2c0-13-7-18.1-14.7-18.1c-8.4,0-16,8.6-16,22.3c0,12.8,7.1,18.2,15.1,18.2
						C879.5,116.5,884.9,106.1,884.9,94.2z M859.7,110c0.3-6.7,0.6-13.5,0.6-20.2c0-2.4,0-4.8-0.1-7.2c3.4-1.4,7.3-2.1,10.8-2.1
						c5.1,0,9.8,2.9,9.8,8.6c0,3.7-3.1,6.8-6.8,9.2c2.4,3,4.7,6.3,6.8,9.5l-5.3,3.6c-2.1-3.3-4.9-7.1-7.8-11.2
						c-0.1,3.4-0.2,6.9-0.4,10.3L859.7,110z M867.9,96.1c3.2-1.9,5.8-5.1,5.8-7.2c0-1.6-1.3-2.3-2.7-2.3c-0.9,0-2,0.2-3.1,0.7
						C867.8,90.3,867.9,93.2,867.9,96.1z"/>
				</g>
				<g>
					<path class="st2" d="M869.3,122.8c-6.4,0-11.9-2-15.9-5.7c-4.6-4.3-6.9-10.7-6.9-18.9c0-18.4,12.2-28.3,23.7-28.3
						c6.3,0,11.8,2,15.7,5.8c4.5,4.3,6.9,10.7,6.9,18.9c0,7.2-2.3,14.4-6.3,19.6C882.1,119.7,876,122.8,869.3,122.8z M870.1,70
						c-11.4,0-23.5,9.9-23.5,28.2c0,15.3,8.5,24.4,22.7,24.4c14.5,0,23.2-14.3,23.2-28.2C892.5,76.4,881,70,870.1,70z M869.3,116.6
						c-7.3,0-15.1-4.8-15.1-18.3c0-14.5,8.3-22.4,16.1-22.4c9.3,0,14.8,6.8,14.8,18.2c0,6.1-1.4,11.6-4,15.7
						C878.2,114.3,874.1,116.6,869.3,116.6z M870.2,76.2c-7.7,0-15.9,7.8-15.9,22.2c0,13.3,7.7,18.1,15,18.1c4.8,0,8.8-2.3,11.6-6.7
						c2.6-4,4-9.5,4-15.6C884.8,82.9,879.4,76.2,870.2,76.2z M875.5,111.6L875.5,111.6c-1.6-2.6-3.6-5.4-5.8-8.4
						c-0.6-0.9-1.3-1.8-1.9-2.7c-0.1,3.4-0.2,7.1-0.3,10.1l0,0.1l-0.1,0l-7.8-0.7l0-0.1c0.3-6.6,0.6-13.4,0.6-20.2
						c0-2.5,0-4.8-0.1-7.2v-0.1l0.1,0c3.3-1.3,7.2-2.1,10.8-2.1c4.9,0,9.9,2.7,9.9,8.7c0,3.2-2.3,6.4-6.7,9.2
						c2.2,2.8,4.6,6.1,6.8,9.4l0.1,0.1l-0.1,0.1L875.5,111.6z M867.6,100l0.2,0.2c0.7,1,1.4,2,2.1,2.9c2.1,2.9,4.1,5.7,5.7,8.2
						l5.1-3.5c-2.2-3.3-4.6-6.6-6.8-9.4l-0.1-0.1l0.1-0.1c3.1-2,6.7-5.2,6.7-9.1c0-5.9-4.9-8.5-9.7-8.5c-3.5,0-7.5,0.8-10.7,2
						c0.1,2.4,0.1,4.7,0.1,7.1c0,6.8-0.3,13.5-0.6,20.1l7.5,0.6c0.1-3.1,0.3-6.8,0.4-10.2L867.6,100z M867.8,96.3v-0.2
						c0-1.5,0-2.9,0-4.4c0-1.5,0-2.9,0-4.4v-0.1l0.1,0c1.1-0.5,2.2-0.7,3.2-0.7c1.3,0,2.8,0.6,2.8,2.4c0,2.1-2.6,5.4-5.8,7.3
						L867.8,96.3z M867.9,87.4c0,1.4,0,2.9,0,4.3c0,1.4,0,2.8,0,4.2c3.1-1.9,5.6-5,5.6-7c0-1.6-1.4-2.2-2.6-2.2
						C870,86.8,868.9,87,867.9,87.4z"/>
				</g>
			</g>
		</g>
		<g>
			<g>
				<g>
					<g>
						<g>
							<path class="st3" d="M913.1,179.9c-0.3-1.2-1.4-2.8-2.4-3.5L884.1,157c-1-0.7-2.8-1.1-4-0.9l-15.7,3.1
								c-1.2,0.2-2.6,1.3-3.1,2.5l-13,29.5c-0.5,1.1-0.7,3-0.5,4.2l12.9,64.6c0.2,1.2,2.5,10.5,11.5,9.9l50.9-11.4
								c1.2-0.3,10.8-4.5,9.8-13.2L913.1,179.9z M881,178.8c-1.2,3-4.6,4.5-7.7,3.3c-3-1.2-4.5-4.6-3.3-7.7c1.2-3,4.6-4.5,7.7-3.3
								C880.7,172.4,882.2,175.8,881,178.8z"/>
						</g>
					</g>
				</g>
				<g>
					<g>
						<path class="st4" d="M913.1,179.9c-0.3-1.2-1.4-2.8-2.4-3.5L884.1,157c-1-0.7-2.8-1.1-4-0.9l-1.9,0.4c0.7,0.1,1.5,0.4,2,0.7
							l28.1,20.6c1,0.7,2.1,2.2,2.4,3.3l18.6,62.1c1.1,8.7-8.7,12.9-9.9,13.2l-51.4,11.4c-1,0.1-2,0-2.8-0.2c1.7,1.4,4,2.3,7,2.1
							l50.9-11.4c1.2-0.3,10.8-4.5,9.8-13.2L913.1,179.9z"/>
					</g>
				</g>
				<g class="st5">
					<g>
						<path class="st6" d="M876.2,158.6c0,0,26.9,15.4,31.4,21.2L914,202c0,0-7.9-20-12.1-23.5C897.6,175,876.2,158.6,876.2,158.6z"
							/>
					</g>
				</g>
				<g class="st5">
					<g>
						<path class="st6" d="M863,162.7c0,0-10.4,29.3-10.4,32.6c-0.1,4.5,9.7,63.1,14.4,71.2c0,0-2.5-1.4-4.1-5.9
							c-1.6-4.5-13.4-65.9-13.4-65.9s0.2-2.2,1.3-4.5C851.8,187.9,863,162.7,863,162.7z"/>
					</g>
				</g>
				<g>
					<g>
						<g>
							<defs>
								<path id="SVGID_1_" d="M878.5,169.1c-4.2-1.7-8.9,0.4-10.6,4.6c-1.7,4.2,0.4,8.9,4.6,10.6c4.2,1.7,8.9-0.4,10.6-4.6
									C884.7,175.5,882.7,170.7,878.5,169.1z M873.3,182.2c-3-1.2-4.5-4.6-3.3-7.7c1.2-3,4.6-4.5,7.7-3.3c3,1.2,4.5,4.6,3.3,7.7
									C879.8,181.9,876.3,183.4,873.3,182.2z"/>
							</defs>
							<clipPath id="SVGID_2_">
								<use xlink:href="#SVGID_1_"  style="overflow:visible;"/>
							</clipPath>
							<g class="st7">
								<rect x="868.8" y="170" class="st8" width="13.4" height="13.4"/>
							</g>
							<g class="st7">
								<circle class="st8" cx="871.2" cy="177.1" r="12.6"/>
							</g>
							<g class="st7">
								<circle class="st9" cx="871.2" cy="177.1" r="12.5"/>
							</g>
							<g class="st7">
								<circle class="st10" cx="871.2" cy="177.1" r="12.4"/>
							</g>
							<g class="st7">
								<circle class="st11" cx="871.2" cy="177.1" r="12.2"/>
							</g>
							<g class="st7">
								<circle class="st12" cx="871.2" cy="177.1" r="12.1"/>
							</g>
							<g class="st7">
								<circle class="st13" cx="871.2" cy="177.1" r="12"/>
							</g>
							<g class="st7">
								<circle class="st14" cx="871.2" cy="177.1" r="11.8"/>
							</g>
							<g class="st7">
								<circle class="st15" cx="871.2" cy="177.1" r="11.7"/>
							</g>
							<g class="st7">
								<circle class="st16" cx="871.2" cy="177.1" r="11.6"/>
							</g>
							<g class="st7">
								<circle class="st17" cx="871.2" cy="177.1" r="11.4"/>
							</g>
							<g class="st7">
								<circle class="st18" cx="871.2" cy="177.1" r="11.3"/>
							</g>
							<g class="st7">
								<circle class="st19" cx="871.2" cy="177.1" r="11.2"/>
							</g>
							<g class="st7">
								<circle class="st20" cx="871.2" cy="177.1" r="11"/>
							</g>
							<g class="st7">
								<circle class="st21" cx="871.2" cy="177.1" r="10.9"/>
							</g>
							<g class="st7">
								<circle class="st22" cx="871.2" cy="177.1" r="10.8"/>
							</g>
							<g class="st7">
								<circle class="st23" cx="871.2" cy="177.1" r="10.6"/>
							</g>
							<g class="st7">
								<circle class="st24" cx="871.2" cy="177.1" r="10.5"/>
							</g>
							<g class="st7">
								<circle class="st25" cx="871.2" cy="177.1" r="10.4"/>
							</g>
							<g class="st7">
								<circle class="st26" cx="871.2" cy="177.1" r="10.2"/>
							</g>
							<g class="st7">
								<circle class="st27" cx="871.2" cy="177.1" r="10.1"/>
							</g>
							<g class="st7">
								<circle class="st28" cx="871.2" cy="177.1" r="10"/>
							</g>
							<g class="st7">
								<circle class="st29" cx="871.2" cy="177.1" r="9.8"/>
							</g>
							<g class="st7">
								<circle class="st30" cx="871.2" cy="177.1" r="9.7"/>
							</g>
							<g class="st7">
								<circle class="st31" cx="871.2" cy="177.1" r="9.6"/>
							</g>
							<g class="st7">
								<circle class="st32" cx="871.2" cy="177.1" r="9.4"/>
							</g>
							<g class="st7">
								<circle class="st33" cx="871.2" cy="177.1" r="9.3"/>
							</g>
							<g class="st7">
								<circle class="st34" cx="871.2" cy="177.1" r="9.2"/>
							</g>
							<g class="st7">
								<circle class="st35" cx="871.2" cy="177.1" r="9"/>
							</g>
							<g class="st7">
								<circle class="st36" cx="871.2" cy="177.1" r="8.9"/>
							</g>
							<g class="st7">
								<circle class="st37" cx="871.2" cy="177.1" r="8.8"/>
							</g>
							<g class="st7">
								<circle class="st38" cx="871.2" cy="177.1" r="8.6"/>
							</g>
							<g class="st7">
								<circle class="st39" cx="871.2" cy="177.1" r="8.5"/>
							</g>
							<g class="st7">
								<circle class="st40" cx="871.2" cy="177.1" r="8.4"/>
							</g>
							<g class="st7">
								<circle class="st41" cx="871.2" cy="177.1" r="8.2"/>
							</g>
							<g class="st7">
								<circle class="st42" cx="871.2" cy="177.1" r="8.1"/>
							</g>
							<g class="st7">
								<circle class="st43" cx="871.2" cy="177.1" r="8"/>
							</g>
							<g class="st7">
								<circle class="st44" cx="871.2" cy="177.1" r="7.8"/>
							</g>
							<g class="st7">
								<circle class="st45" cx="871.2" cy="177.1" r="7.7"/>
							</g>
							<g class="st7">
								<circle class="st46" cx="871.2" cy="177.1" r="7.6"/>
							</g>
							<g class="st7">
								<circle class="st47" cx="871.2" cy="177.1" r="7.5"/>
							</g>
							<g class="st7">
								<circle class="st48" cx="871.2" cy="177.1" r="7.3"/>
							</g>
							<g class="st7">
								<circle class="st49" cx="871.2" cy="177.1" r="7.2"/>
							</g>
							<g class="st7">
								<circle class="st50" cx="871.2" cy="177.1" r="7.1"/>
							</g>
							<g class="st7">
								<circle class="st50" cx="871.2" cy="177.1" r="6.9"/>
							</g>
							<g class="st7">
								<circle class="st51" cx="871.2" cy="177.1" r="6.8"/>
							</g>
							<g class="st7">
								<circle class="st52" cx="871.2" cy="177.1" r="6.7"/>
							</g>
							<g class="st7">
								<circle class="st53" cx="871.2" cy="177.1" r="6.5"/>
							</g>
							<g class="st7">
								<circle class="st54" cx="871.2" cy="177.1" r="6.4"/>
							</g>
							<g class="st7">
								<circle class="st55" cx="871.2" cy="177.1" r="6.3"/>
							</g>
							<g class="st7">
								<circle class="st56" cx="871.2" cy="177.1" r="6.1"/>
							</g>
							<g class="st7">
								<circle class="st55" cx="871.2" cy="177.1" r="6"/>
							</g>
							<g class="st7">
								<circle class="st57" cx="871.2" cy="177.1" r="5.9"/>
							</g>
							<g class="st7">
								<circle class="st58" cx="871.2" cy="177.1" r="5.7"/>
							</g>
							<g class="st7">
								<circle class="st59" cx="871.2" cy="177.1" r="5.6"/>
							</g>
							<g class="st7">
								<circle class="st60" cx="871.2" cy="177.1" r="5.5"/>
							</g>
							<g class="st7">
								<circle class="st61" cx="871.2" cy="177.1" r="5.3"/>
							</g>
							<g class="st7">
								<circle class="st62" cx="871.2" cy="177.1" r="5.2"/>
							</g>
							<g class="st7">
								<circle class="st63" cx="871.2" cy="177.1" r="5.1"/>
							</g>
							<g class="st7">
								<circle class="st64" cx="871.2" cy="177.1" r="4.9"/>
							</g>
							<g class="st7">
								<circle class="st64" cx="871.2" cy="177.1" r="4.8"/>
							</g>
							<g class="st7">
								<circle class="st65" cx="871.2" cy="177.1" r="4.7"/>
							</g>
							<g class="st7">
								<circle class="st65" cx="871.2" cy="177.1" r="4.5"/>
							</g>
							<g class="st7">
								<circle class="st66" cx="871.2" cy="177.1" r="4.4"/>
							</g>
							<g class="st7">
								<circle class="st67" cx="871.2" cy="177.1" r="4.3"/>
							</g>
							<g class="st7">
								<circle class="st68" cx="871.2" cy="177.1" r="4.1"/>
							</g>
							<g class="st7">
								<circle class="st68" cx="871.2" cy="177.1" r="4"/>
							</g>
							<g class="st7">
								<circle class="st69" cx="871.2" cy="177.1" r="3.9"/>
							</g>
							<g class="st7">
								<circle class="st69" cx="871.2" cy="177.1" r="3.7"/>
							</g>
							<g class="st7">
								<circle class="st70" cx="871.2" cy="177.1" r="3.6"/>
							</g>
							<g class="st7">
								<circle class="st71" cx="871.2" cy="177.1" r="3.5"/>
							</g>
							<g class="st7">
								<circle class="st71" cx="871.2" cy="177.1" r="3.3"/>
							</g>
							<g class="st7">
								<circle class="st72" cx="871.2" cy="177.1" r="3.2"/>
							</g>
							<g class="st7">
								<circle class="st72" cx="871.2" cy="177.1" r="3.1"/>
							</g>
							<g class="st7">
								<circle class="st73" cx="871.2" cy="177.1" r="2.9"/>
							</g>
							<g class="st7">
								<circle class="st73" cx="871.2" cy="177.1" r="2.8"/>
							</g>
							<g class="st7">
								<circle class="st73" cx="871.2" cy="177.1" r="2.7"/>
							</g>
							<g class="st7">
								<circle class="st73" cx="871.2" cy="177.1" r="2.5"/>
							</g>
							<g class="st7">
								<circle class="st73" cx="871.2" cy="177.1" r="2.4"/>
							</g>
							<g class="st7">
								<circle class="st74" cx="871.2" cy="177.1" r="2.3"/>
							</g>
							<g class="st7">
								<circle class="st74" cx="871.2" cy="177.1" r="2.1"/>
							</g>
							<g class="st7">
								<circle class="st75" cx="871.2" cy="177.1" r="2"/>
							</g>
							<g class="st7">
								<circle class="st75" cx="871.2" cy="177.1" r="1.9"/>
							</g>
							<g class="st7">
								<circle class="st75" cx="871.2" cy="177.1" r="1.7"/>
							</g>
							<g class="st7">
								<circle class="st75" cx="871.2" cy="177.1" r="1.6"/>
							</g>
							<g class="st7">
								<circle class="st75" cx="871.2" cy="177.1" r="1.5"/>
							</g>
							<g class="st7">
								<circle class="st75" cx="871.2" cy="177.1" r="1.3"/>
							</g>
							<g class="st7">
								<circle class="st75" cx="871.2" cy="177.1" r="1.2"/>
							</g>
							<g class="st7">
								<circle class="st75" cx="871.2" cy="177.1" r="1.1"/>
							</g>
							<g class="st7">
								<circle class="st75" cx="871.2" cy="177.1" r="0.9"/>
							</g>
							<g class="st7">
								<circle class="st75" cx="871.2" cy="177.1" r="0.8"/>
							</g>
							<g class="st7">
								<circle class="st75" cx="871.2" cy="177.1" r="0.7"/>
							</g>
							<g class="st7">
								<circle class="st75" cx="871.2" cy="177.1" r="0.5"/>
							</g>
							<g class="st7">
								<circle class="st75" cx="871.2" cy="177.1" r="0.4"/>
							</g>
							<g class="st7">
								<path class="st75" d="M871.4,177.1c0,0.1-0.1,0.3-0.2,0.3c-0.1,0-0.3-0.1-0.3-0.2c0-0.1,0.1-0.3,0.2-0.3
									C871.3,176.8,871.4,176.9,871.4,177.1z"/>
							</g>
							<g class="st7">
								<path class="st75" d="M871.3,177.1c0,0.1,0,0.1-0.1,0.2c-0.1,0-0.1,0-0.2-0.1s0-0.1,0.1-0.2
									C871.2,177,871.3,177,871.3,177.1z"/>
							</g>
							<g class="st7">
								<rect x="866.3" y="167.4" class="st8" width="18.5" height="18.5"/>
							</g>
							<g class="st7">
								<circle class="st8" cx="871.2" cy="177.1" r="12.6"/>
							</g>
							<g class="st7">
								<circle class="st9" cx="871.2" cy="177.1" r="12.5"/>
							</g>
							<g class="st7">
								<circle class="st10" cx="871.2" cy="177.1" r="12.4"/>
							</g>
							<g class="st7">
								<circle class="st11" cx="871.2" cy="177.1" r="12.2"/>
							</g>
							<g class="st7">
								<circle class="st12" cx="871.2" cy="177.1" r="12.1"/>
							</g>
							<g class="st7">
								<circle class="st13" cx="871.2" cy="177.1" r="12"/>
							</g>
							<g class="st7">
								<circle class="st14" cx="871.2" cy="177.1" r="11.8"/>
							</g>
							<g class="st7">
								<circle class="st15" cx="871.2" cy="177.1" r="11.7"/>
							</g>
							<g class="st7">
								<circle class="st16" cx="871.2" cy="177.1" r="11.6"/>
							</g>
							<g class="st7">
								<circle class="st17" cx="871.2" cy="177.1" r="11.4"/>
							</g>
							<g class="st7">
								<circle class="st18" cx="871.2" cy="177.1" r="11.3"/>
							</g>
							<g class="st7">
								<circle class="st19" cx="871.2" cy="177.1" r="11.2"/>
							</g>
							<g class="st7">
								<circle class="st20" cx="871.2" cy="177.1" r="11"/>
							</g>
							<g class="st7">
								<circle class="st21" cx="871.2" cy="177.1" r="10.9"/>
							</g>
							<g class="st7">
								<circle class="st22" cx="871.2" cy="177.1" r="10.8"/>
							</g>
							<g class="st7">
								<circle class="st23" cx="871.2" cy="177.1" r="10.6"/>
							</g>
							<g class="st7">
								<circle class="st24" cx="871.2" cy="177.1" r="10.5"/>
							</g>
							<g class="st7">
								<circle class="st25" cx="871.2" cy="177.1" r="10.4"/>
							</g>
							<g class="st7">
								<circle class="st26" cx="871.2" cy="177.1" r="10.2"/>
							</g>
							<g class="st7">
								<circle class="st27" cx="871.2" cy="177.1" r="10.1"/>
							</g>
							<g class="st7">
								<circle class="st28" cx="871.2" cy="177.1" r="10"/>
							</g>
							<g class="st7">
								<circle class="st29" cx="871.2" cy="177.1" r="9.8"/>
							</g>
							<g class="st7">
								<circle class="st30" cx="871.2" cy="177.1" r="9.7"/>
							</g>
							<g class="st7">
								<circle class="st31" cx="871.2" cy="177.1" r="9.6"/>
							</g>
							<g class="st7">
								<circle class="st32" cx="871.2" cy="177.1" r="9.4"/>
							</g>
							<g class="st7">
								<circle class="st33" cx="871.2" cy="177.1" r="9.3"/>
							</g>
							<g class="st7">
								<circle class="st34" cx="871.2" cy="177.1" r="9.2"/>
							</g>
							<g class="st7">
								<circle class="st35" cx="871.2" cy="177.1" r="9"/>
							</g>
							<g class="st7">
								<circle class="st36" cx="871.2" cy="177.1" r="8.9"/>
							</g>
							<g class="st7">
								<circle class="st37" cx="871.2" cy="177.1" r="8.8"/>
							</g>
							<g class="st7">
								<circle class="st38" cx="871.2" cy="177.1" r="8.6"/>
							</g>
							<g class="st7">
								<circle class="st39" cx="871.2" cy="177.1" r="8.5"/>
							</g>
							<g class="st7">
								<circle class="st40" cx="871.2" cy="177.1" r="8.4"/>
							</g>
							<g class="st7">
								<circle class="st41" cx="871.2" cy="177.1" r="8.2"/>
							</g>
							<g class="st7">
								<circle class="st42" cx="871.2" cy="177.1" r="8.1"/>
							</g>
							<g class="st7">
								<circle class="st43" cx="871.2" cy="177.1" r="8"/>
							</g>
							<g class="st7">
								<circle class="st44" cx="871.2" cy="177.1" r="7.8"/>
							</g>
							<g class="st7">
								<circle class="st45" cx="871.2" cy="177.1" r="7.7"/>
							</g>
							<g class="st7">
								<circle class="st46" cx="871.2" cy="177.1" r="7.6"/>
							</g>
							<g class="st7">
								<circle class="st47" cx="871.2" cy="177.1" r="7.5"/>
							</g>
							<g class="st7">
								<circle class="st48" cx="871.2" cy="177.1" r="7.3"/>
							</g>
							<g class="st7">
								<circle class="st49" cx="871.2" cy="177.1" r="7.2"/>
							</g>
							<g class="st7">
								<circle class="st50" cx="871.2" cy="177.1" r="7.1"/>
							</g>
							<g class="st7">
								<circle class="st50" cx="871.2" cy="177.1" r="6.9"/>
							</g>
							<g class="st7">
								<circle class="st51" cx="871.2" cy="177.1" r="6.8"/>
							</g>
							<g class="st7">
								<circle class="st52" cx="871.2" cy="177.1" r="6.7"/>
							</g>
							<g class="st7">
								<circle class="st53" cx="871.2" cy="177.1" r="6.5"/>
							</g>
							<g class="st7">
								<circle class="st54" cx="871.2" cy="177.1" r="6.4"/>
							</g>
							<g class="st7">
								<circle class="st55" cx="871.2" cy="177.1" r="6.3"/>
							</g>
							<g class="st7">
								<circle class="st56" cx="871.2" cy="177.1" r="6.1"/>
							</g>
							<g class="st7">
								<circle class="st55" cx="871.2" cy="177.1" r="6"/>
							</g>
							<g class="st7">
								<circle class="st57" cx="871.2" cy="177.1" r="5.9"/>
							</g>
							<g class="st7">
								<circle class="st58" cx="871.2" cy="177.1" r="5.7"/>
							</g>
							<g class="st7">
								<circle class="st59" cx="871.2" cy="177.1" r="5.6"/>
							</g>
							<g class="st7">
								<circle class="st60" cx="871.2" cy="177.1" r="5.5"/>
							</g>
							<g class="st7">
								<circle class="st61" cx="871.2" cy="177.1" r="5.3"/>
							</g>
							<g class="st7">
								<circle class="st62" cx="871.2" cy="177.1" r="5.2"/>
							</g>
							<g class="st7">
								<circle class="st63" cx="871.2" cy="177.1" r="5.1"/>
							</g>
							<g class="st7">
								<circle class="st64" cx="871.2" cy="177.1" r="4.9"/>
							</g>
							<g class="st7">
								<circle class="st64" cx="871.2" cy="177.1" r="4.8"/>
							</g>
							<g class="st7">
								<circle class="st65" cx="871.2" cy="177.1" r="4.7"/>
							</g>
							<g class="st7">
								<circle class="st65" cx="871.2" cy="177.1" r="4.5"/>
							</g>
							<g class="st7">
								<circle class="st66" cx="871.2" cy="177.1" r="4.4"/>
							</g>
							<g class="st7">
								<circle class="st67" cx="871.2" cy="177.1" r="4.3"/>
							</g>
							<g class="st7">
								<circle class="st68" cx="871.2" cy="177.1" r="4.1"/>
							</g>
							<g class="st7">
								<circle class="st68" cx="871.2" cy="177.1" r="4"/>
							</g>
							<g class="st7">
								<circle class="st69" cx="871.2" cy="177.1" r="3.9"/>
							</g>
							<g class="st7">
								<circle class="st69" cx="871.2" cy="177.1" r="3.7"/>
							</g>
							<g class="st7">
								<circle class="st70" cx="871.2" cy="177.1" r="3.6"/>
							</g>
							<g class="st7">
								<circle class="st71" cx="871.2" cy="177.1" r="3.5"/>
							</g>
							<g class="st7">
								<circle class="st71" cx="871.2" cy="177.1" r="3.3"/>
							</g>
							<g class="st7">
								<circle class="st72" cx="871.2" cy="177.1" r="3.2"/>
							</g>
							<g class="st7">
								<circle class="st72" cx="871.2" cy="177.1" r="3.1"/>
							</g>
							<g class="st7">
								<circle class="st73" cx="871.2" cy="177.1" r="2.9"/>
							</g>
							<g class="st7">
								<circle class="st73" cx="871.2" cy="177.1" r="2.8"/>
							</g>
							<g class="st7">
								<circle class="st73" cx="871.2" cy="177.1" r="2.7"/>
							</g>
							<g class="st7">
								<circle class="st73" cx="871.2" cy="177.1" r="2.5"/>
							</g>
							<g class="st7">
								<circle class="st73" cx="871.2" cy="177.1" r="2.4"/>
							</g>
							<g class="st7">
								<circle class="st74" cx="871.2" cy="177.1" r="2.3"/>
							</g>
							<g class="st7">
								<circle class="st74" cx="871.2" cy="177.1" r="2.1"/>
							</g>
							<g class="st7">
								<circle class="st75" cx="871.2" cy="177.1" r="2"/>
							</g>
							<g class="st7">
								<circle class="st75" cx="871.2" cy="177.1" r="1.9"/>
							</g>
							<g class="st7">
								<circle class="st75" cx="871.2" cy="177.1" r="1.7"/>
							</g>
							<g class="st7">
								<circle class="st75" cx="871.2" cy="177.1" r="1.6"/>
							</g>
							<g class="st7">
								<circle class="st75" cx="871.2" cy="177.1" r="1.5"/>
							</g>
							<g class="st7">
								<circle class="st75" cx="871.2" cy="177.1" r="1.3"/>
							</g>
							<g class="st7">
								<circle class="st75" cx="871.2" cy="177.1" r="1.2"/>
							</g>
							<g class="st7">
								<circle class="st75" cx="871.2" cy="177.1" r="1.1"/>
							</g>
							<g class="st7">
								<circle class="st75" cx="871.2" cy="177.1" r="0.9"/>
							</g>
							<g class="st7">
								<circle class="st75" cx="871.2" cy="177.1" r="0.8"/>
							</g>
							<g class="st7">
								<circle class="st75" cx="871.2" cy="177.1" r="0.7"/>
							</g>
							<g class="st7">
								<circle class="st75" cx="871.2" cy="177.1" r="0.5"/>
							</g>
							<g class="st7">
								<circle class="st75" cx="871.2" cy="177.1" r="0.4"/>
							</g>
							<g class="st7">
								<path class="st75" d="M871.4,177.1c0,0.1-0.1,0.3-0.2,0.3c-0.1,0-0.3-0.1-0.3-0.2c0-0.1,0.1-0.3,0.2-0.3
									C871.3,176.8,871.4,176.9,871.4,177.1z"/>
							</g>
							<g class="st7">
								<path class="st75" d="M871.3,177.1c0,0.1,0,0.1-0.1,0.2c-0.1,0-0.1,0-0.2-0.1s0-0.1,0.1-0.2
									C871.2,177,871.3,177,871.3,177.1z"/>
							</g>
						</g>
					</g>
					<g>
						<g>
							<defs>
								<path id="SVGID_3_" d="M871.6,176c1.2-3,4.6-4.5,7.7-3.3c0.4,0.1,0.7,0.3,1,0.5c-0.6-0.9-1.5-1.6-2.6-2
									c-3-1.2-6.5,0.3-7.7,3.3c-1.1,2.7,0,5.7,2.3,7.2C871.2,180.1,870.8,178,871.6,176z"/>
							</defs>
							<clipPath id="SVGID_4_">
								<use xlink:href="#SVGID_3_"  style="overflow:visible;"/>
							</clipPath>
							<g class="st76">
								<polygon class="st8" points="868.9,173.7 870.4,181.6 868.9,181.6 								"/>
							</g>
							<g class="st76">
								<polygon class="st8" points="868.9,173 870.5,181.6 870.4,181.6 868.9,173.7 								"/>
							</g>
							<g class="st76">
								<polygon class="st8" points="868.9,172.3 870.6,181.6 870.5,181.6 868.9,173 								"/>
							</g>
							<g class="st76">
								<polygon class="st77" points="868.9,171.6 870.7,181.6 870.6,181.6 868.9,172.3 								"/>
							</g>
							<g class="st76">
								<polygon class="st78" points="868.9,171 870.9,181.6 870.7,181.6 868.9,171.6 								"/>
							</g>
							<g class="st76">
								<polygon class="st79" points="868.9,170.3 871,181.6 870.9,181.6 868.9,171 								"/>
							</g>
							<g class="st76">
								<polygon class="st80" points="869,170 871.1,181.6 871,181.6 868.9,170.3 868.9,170 								"/>
							</g>
							<g class="st76">
								<polygon class="st81" points="869.1,170 871.2,181.6 871.1,181.6 869,170 								"/>
							</g>
							<g class="st76">
								<polygon class="st82" points="869.2,170 871.4,181.6 871.2,181.6 869.1,170 								"/>
							</g>
							<g class="st76">
								<polygon class="st83" points="869.3,170 871.5,181.6 871.4,181.6 869.2,170 								"/>
							</g>
							<g class="st76">
								<polygon class="st84" points="869.5,170 871.6,181.6 871.5,181.6 869.3,170 								"/>
							</g>
							<g class="st76">
								<polygon class="st85" points="869.6,170 871.7,181.6 871.6,181.6 869.5,170 								"/>
							</g>
							<g class="st76">
								<polygon class="st86" points="869.7,170 871.8,181.6 871.7,181.6 869.6,170 								"/>
							</g>
							<g class="st76">
								<polygon class="st87" points="869.8,170 872,181.6 871.8,181.6 869.7,170 								"/>
							</g>
							<g class="st76">
								<polygon class="st88" points="870,170 872.1,181.6 872,181.6 869.8,170 								"/>
							</g>
							<g class="st76">
								<polygon class="st89" points="870.1,170 872.2,181.6 872.1,181.6 870,170 								"/>
							</g>
							<g class="st76">
								<polygon class="st90" points="870.2,170 872.3,181.6 872.2,181.6 870.1,170 								"/>
							</g>
							<g class="st76">
								<polygon class="st91" points="870.3,170 872.4,181.6 872.3,181.6 870.2,170 								"/>
							</g>
							<g class="st76">
								<polygon class="st92" points="870.4,170 872.6,181.6 872.4,181.6 870.3,170 								"/>
							</g>
							<g class="st76">
								<polygon class="st93" points="870.6,170 872.7,181.6 872.6,181.6 870.4,170 								"/>
							</g>
							<g class="st76">
								<polygon class="st94" points="870.7,170 872.8,181.6 872.7,181.6 870.6,170 								"/>
							</g>
							<g class="st76">
								<polygon class="st95" points="870.8,170 872.9,181.6 872.8,181.6 870.7,170 								"/>
							</g>
							<g class="st76">
								<polygon class="st96" points="870.9,170 873.1,181.6 872.9,181.6 870.8,170 								"/>
							</g>
							<g class="st76">
								<polygon class="st97" points="871,170 873.2,181.6 873.1,181.6 870.9,170 								"/>
							</g>
							<g class="st76">
								<polygon class="st98" points="871.2,170 873.3,181.6 873.2,181.6 871,170 								"/>
							</g>
							<g class="st76">
								<polygon class="st99" points="871.3,170 873.4,181.6 873.3,181.6 871.2,170 								"/>
							</g>
							<g class="st76">
								<polygon class="st100" points="871.4,170 873.5,181.6 873.4,181.6 871.3,170 								"/>
							</g>
							<g class="st76">
								<polygon class="st101" points="871.5,170 873.7,181.6 873.5,181.6 871.4,170 								"/>
							</g>
							<g class="st76">
								<polygon class="st102" points="871.7,170 873.8,181.6 873.7,181.6 871.5,170 								"/>
							</g>
							<g class="st76">
								<polygon class="st103" points="871.8,170 873.9,181.6 873.8,181.6 871.7,170 								"/>
							</g>
							<g class="st76">
								<polygon class="st104" points="871.9,170 874,181.6 873.9,181.6 871.8,170 								"/>
							</g>
							<g class="st76">
								<polygon class="st105" points="872,170 874.1,181.6 874,181.6 871.9,170 								"/>
							</g>
							<g class="st76">
								<polygon class="st106" points="872.1,170 874.3,181.6 874.1,181.6 872,170 								"/>
							</g>
							<g class="st76">
								<polygon class="st107" points="872.3,170 874.4,181.6 874.3,181.6 872.1,170 								"/>
							</g>
							<g class="st76">
								<polygon class="st108" points="872.4,170 874.5,181.6 874.4,181.6 872.3,170 								"/>
							</g>
							<g class="st76">
								<polygon class="st109" points="872.5,170 874.6,181.6 874.5,181.6 872.4,170 								"/>
							</g>
							<g class="st76">
								<polygon class="st110" points="872.6,170 874.8,181.6 874.6,181.6 872.5,170 								"/>
							</g>
							<g class="st76">
								<polygon class="st111" points="872.8,170 874.9,181.6 874.8,181.6 872.6,170 								"/>
							</g>
							<g class="st76">
								<polygon class="st112" points="872.9,170 875,181.6 874.9,181.6 872.8,170 								"/>
							</g>
							<g class="st76">
								<polygon class="st113" points="873,170 875.1,181.6 875,181.6 872.9,170 								"/>
							</g>
							<g class="st76">
								<polygon class="st114" points="873.1,170 875.2,181.6 875.1,181.6 873,170 								"/>
							</g>
							<g class="st76">
								<polygon class="st115" points="873.2,170 875.4,181.6 875.2,181.6 873.1,170 								"/>
							</g>
							<g class="st76">
								<polygon class="st116" points="873.4,170 875.5,181.6 875.4,181.6 873.2,170 								"/>
							</g>
							<g class="st76">
								<polygon class="st117" points="873.5,170 875.6,181.6 875.5,181.6 873.4,170 								"/>
							</g>
							<g class="st76">
								<polygon class="st118" points="873.6,170 875.7,181.6 875.6,181.6 873.5,170 								"/>
							</g>
							<g class="st76">
								<polygon class="st119" points="873.7,170 875.9,181.6 875.7,181.6 873.6,170 								"/>
							</g>
							<g class="st76">
								<polygon class="st120" points="873.8,170 876,181.6 875.9,181.6 873.7,170 								"/>
							</g>
							<g class="st76">
								<polygon class="st121" points="874,170 876.1,181.6 876,181.6 873.8,170 								"/>
							</g>
							<g class="st76">
								<polygon class="st122" points="874.1,170 876.2,181.6 876.1,181.6 874,170 								"/>
							</g>
							<g class="st76">
								<polygon class="st123" points="874.2,170 876.3,181.6 876.2,181.6 874.1,170 								"/>
							</g>
							<g class="st76">
								<polygon class="st124" points="874.3,170 876.5,181.6 876.3,181.6 874.2,170 								"/>
							</g>
							<g class="st76">
								<polygon class="st125" points="874.5,170 876.6,181.6 876.5,181.6 874.3,170 								"/>
							</g>
							<g class="st76">
								<polygon class="st126" points="874.6,170 876.7,181.6 876.6,181.6 874.5,170 								"/>
							</g>
							<g class="st76">
								<polygon class="st127" points="874.7,170 876.8,181.6 876.7,181.6 874.6,170 								"/>
							</g>
							<g class="st76">
								<polygon class="st128" points="874.8,170 876.9,181.6 876.8,181.6 874.7,170 								"/>
							</g>
							<g class="st76">
								<polygon class="st129" points="874.9,170 877.1,181.6 876.9,181.6 874.8,170 								"/>
							</g>
							<g class="st76">
								<polygon class="st129" points="875.1,170 877.2,181.6 877.1,181.6 874.9,170 								"/>
							</g>
							<g class="st76">
								<polygon class="st130" points="875.2,170 877.3,181.6 877.2,181.6 875.1,170 								"/>
							</g>
							<g class="st76">
								<polygon class="st131" points="875.3,170 877.4,181.6 877.3,181.6 875.2,170 								"/>
							</g>
							<g class="st76">
								<polygon class="st132" points="875.4,170 877.6,181.6 877.4,181.6 875.3,170 								"/>
							</g>
							<g class="st76">
								<polygon class="st133" points="875.6,170 877.7,181.6 877.6,181.6 875.4,170 								"/>
							</g>
							<g class="st76">
								<polygon class="st134" points="875.7,170 877.8,181.6 877.7,181.6 875.6,170 								"/>
							</g>
							<g class="st76">
								<polygon class="st135" points="875.8,170 877.9,181.6 877.8,181.6 875.7,170 								"/>
							</g>
							<g class="st76">
								<polygon class="st136" points="875.9,170 878,181.6 877.9,181.6 875.8,170 								"/>
							</g>
							<g class="st76">
								<polygon class="st137" points="876,170 878.2,181.6 878,181.6 875.9,170 								"/>
							</g>
							<g class="st76">
								<polygon class="st138" points="876.2,170 878.3,181.6 878.2,181.6 876,170 								"/>
							</g>
							<g class="st76">
								<polygon class="st139" points="876.3,170 878.4,181.6 878.3,181.6 876.2,170 								"/>
							</g>
							<g class="st76">
								<polygon class="st140" points="876.4,170 878.5,181.6 878.4,181.6 876.3,170 								"/>
							</g>
							<g class="st76">
								<polygon class="st141" points="876.5,170 878.7,181.6 878.5,181.6 876.4,170 								"/>
							</g>
							<g class="st76">
								<polygon class="st142" points="876.6,170 878.8,181.6 878.7,181.6 876.5,170 								"/>
							</g>
							<g class="st76">
								<polygon class="st143" points="876.8,170 878.9,181.6 878.8,181.6 876.6,170 								"/>
							</g>
							<g class="st76">
								<polygon class="st143" points="876.9,170 879,181.6 878.9,181.6 876.8,170 								"/>
							</g>
							<g class="st76">
								<polygon class="st144" points="877,170 879.1,181.6 879,181.6 876.9,170 								"/>
							</g>
							<g class="st76">
								<polygon class="st145" points="877.1,170 879.3,181.6 879.1,181.6 877,170 								"/>
							</g>
							<g class="st76">
								<polygon class="st146" points="877.3,170 879.4,181.6 879.3,181.6 877.1,170 								"/>
							</g>
							<g class="st76">
								<polygon class="st147" points="877.4,170 879.5,181.6 879.4,181.6 877.3,170 								"/>
							</g>
							<g class="st76">
								<polygon class="st148" points="877.5,170 879.6,181.6 879.5,181.6 877.4,170 								"/>
							</g>
							<g class="st76">
								<polygon class="st149" points="877.6,170 879.7,181.6 879.6,181.6 877.5,170 								"/>
							</g>
							<g class="st76">
								<polygon class="st150" points="877.7,170 879.9,181.6 879.7,181.6 877.6,170 								"/>
							</g>
							<g class="st76">
								<polygon class="st151" points="877.9,170 880,181.6 879.9,181.6 877.7,170 								"/>
							</g>
							<g class="st76">
								<polygon class="st152" points="878,170 880.1,181.6 880,181.6 877.9,170 								"/>
							</g>
							<g class="st76">
								<polygon class="st153" points="878.1,170 880.2,181.6 880.1,181.6 878,170 								"/>
							</g>
							<g class="st76">
								<polygon class="st154" points="878.2,170 880.3,181.2 880.3,181.6 880.2,181.6 878.1,170 								"/>
							</g>
							<g class="st76">
								<polygon class="st155" points="878.4,170 880.3,180.6 880.3,181.2 878.2,170 								"/>
							</g>
							<g class="st76">
								<polygon class="st156" points="878.5,170 880.3,179.9 880.3,180.6 878.4,170 								"/>
							</g>
							<g class="st76">
								<polygon class="st157" points="878.6,170 880.3,179.2 880.3,179.9 878.5,170 								"/>
							</g>
							<g class="st76">
								<polygon class="st158" points="878.7,170 880.3,178.6 880.3,179.2 878.6,170 								"/>
							</g>
							<g class="st76">
								<polygon class="st159" points="878.8,170 880.3,177.9 880.3,178.6 878.7,170 								"/>
							</g>
							<g class="st76">
								<polygon class="st160" points="879,170 880.3,177.2 880.3,177.9 878.8,170 								"/>
							</g>
							<g class="st76">
								<polygon class="st161" points="879.1,170 880.3,176.6 880.3,177.2 879,170 								"/>
							</g>
							<g class="st76">
								<polygon class="st162" points="879.2,170 880.3,175.9 880.3,176.6 879.1,170 								"/>
							</g>
							<g class="st76">
								<polygon class="st163" points="879.3,170 880.3,175.2 880.3,175.9 879.2,170 								"/>
							</g>
							<g class="st76">
								<polygon class="st164" points="879.4,170 880.3,174.5 880.3,175.2 879.3,170 								"/>
							</g>
							<g class="st76">
								<polygon class="st165" points="879.6,170 880.3,173.9 880.3,174.5 879.4,170 								"/>
							</g>
							<g class="st76">
								<polygon class="st166" points="879.7,170 880.3,173.2 880.3,173.9 879.6,170 								"/>
							</g>
							<g class="st76">
								<polygon class="st166" points="880.3,173.2 879.7,170 880.3,170 								"/>
							</g>
						</g>
					</g>
					<g>
						<g>
							<defs>
								<path id="SVGID_5_" d="M877.6,170.8c-3.2-1.3-6.8,0.3-8.1,3.5c-1.3,3.2,0.3,6.8,3.5,8.1c3.2,1.3,6.8-0.3,8.1-3.5
									C882.4,175.7,880.8,172.1,877.6,170.8z M881,178.8c-1.2,3-4.6,4.5-7.7,3.3c-3-1.2-4.5-4.6-3.3-7.7c1.2-3,4.6-4.5,7.7-3.3
									C880.7,172.4,882.2,175.8,881,178.8z"/>
							</defs>
							<clipPath id="SVGID_6_">
								<use xlink:href="#SVGID_5_"  style="overflow:visible;"/>
							</clipPath>
							<g class="st167">
								<polygon class="st6" points="868.8,175.6 870.5,183.4 868.8,183.4 								"/>
							</g>
							<g class="st167">
								<polygon class="st6" points="868.8,174.8 870.6,183.4 870.5,183.4 868.8,175.6 								"/>
							</g>
							<g class="st167">
								<polygon class="st6" points="868.8,174.1 870.8,183.4 870.6,183.4 868.8,174.8 								"/>
							</g>
							<g class="st167">
								<polygon class="st168" points="868.8,173.3 871,183.4 870.8,183.4 868.8,174.1 								"/>
							</g>
							<g class="st167">
								<polygon class="st169" points="868.8,172.6 871.1,183.4 871,183.4 868.8,173.3 								"/>
							</g>
							<g class="st167">
								<polygon class="st169" points="868.8,171.9 871.3,183.4 871.1,183.4 868.8,172.6 								"/>
							</g>
							<g class="st167">
								<polygon class="st170" points="868.8,171.1 871.4,183.4 871.3,183.4 868.8,171.9 								"/>
							</g>
							<g class="st167">
								<polygon class="st170" points="868.8,170.4 871.6,183.4 871.4,183.4 868.8,171.1 								"/>
							</g>
							<g class="st167">
								<polygon class="st171" points="868.9,170 871.8,183.4 871.6,183.4 868.8,170.4 868.8,170 								"/>
							</g>
							<g class="st167">
								<polygon class="st172" points="869,170 871.9,183.4 871.8,183.4 868.9,170 								"/>
							</g>
							<g class="st167">
								<polygon class="st173" points="869.2,170 872.1,183.4 871.9,183.4 869,170 								"/>
							</g>
							<g class="st167">
								<polygon class="st174" points="869.3,170 872.2,183.4 872.1,183.4 869.2,170 								"/>
							</g>
							<g class="st167">
								<polygon class="st174" points="869.5,170 872.4,183.4 872.2,183.4 869.3,170 								"/>
							</g>
							<g class="st167">
								<polygon class="st175" points="869.7,170 872.6,183.4 872.4,183.4 869.5,170 								"/>
							</g>
							<g class="st167">
								<polygon class="st176" points="869.8,170 872.7,183.4 872.6,183.4 869.7,170 								"/>
							</g>
							<g class="st167">
								<polygon class="st177" points="870,170 872.9,183.4 872.7,183.4 869.8,170 								"/>
							</g>
							<g class="st167">
								<polygon class="st178" points="870.1,170 873,183.4 872.9,183.4 870,170 								"/>
							</g>
							<g class="st167">
								<polygon class="st179" points="870.3,170 873.2,183.4 873,183.4 870.1,170 								"/>
							</g>
							<g class="st167">
								<polygon class="st180" points="870.5,170 873.4,183.4 873.2,183.4 870.3,170 								"/>
							</g>
							<g class="st167">
								<polygon class="st181" points="870.6,170 873.5,183.4 873.4,183.4 870.5,170 								"/>
							</g>
							<g class="st167">
								<polygon class="st182" points="870.8,170 873.7,183.4 873.5,183.4 870.6,170 								"/>
							</g>
							<g class="st167">
								<polygon class="st183" points="870.9,170 873.9,183.4 873.7,183.4 870.8,170 								"/>
							</g>
							<g class="st167">
								<polygon class="st184" points="871.1,170 874,183.4 873.9,183.4 870.9,170 								"/>
							</g>
							<g class="st167">
								<polygon class="st185" points="871.3,170 874.2,183.4 874,183.4 871.1,170 								"/>
							</g>
							<g class="st167">
								<polygon class="st186" points="871.4,170 874.3,183.4 874.2,183.4 871.3,170 								"/>
							</g>
							<g class="st167">
								<polygon class="st187" points="871.6,170 874.5,183.4 874.3,183.4 871.4,170 								"/>
							</g>
							<g class="st167">
								<polygon class="st188" points="871.8,170 874.7,183.4 874.5,183.4 871.6,170 								"/>
							</g>
							<g class="st167">
								<polygon class="st189" points="871.9,170 874.8,183.4 874.7,183.4 871.8,170 								"/>
							</g>
							<g class="st167">
								<polygon class="st190" points="872.1,170 875,183.4 874.8,183.4 871.9,170 								"/>
							</g>
							<g class="st167">
								<polygon class="st191" points="872.2,170 875.1,183.4 875,183.4 872.1,170 								"/>
							</g>
							<g class="st167">
								<polygon class="st192" points="872.4,170 875.3,183.4 875.1,183.4 872.2,170 								"/>
							</g>
							<g class="st167">
								<polygon class="st193" points="872.6,170 875.5,183.4 875.3,183.4 872.4,170 								"/>
							</g>
							<g class="st167">
								<polygon class="st194" points="872.7,170 875.6,183.4 875.5,183.4 872.6,170 								"/>
							</g>
							<g class="st167">
								<polygon class="st195" points="872.9,170 875.8,183.4 875.6,183.4 872.7,170 								"/>
							</g>
							<g class="st167">
								<polygon class="st196" points="873,170 875.9,183.4 875.8,183.4 872.9,170 								"/>
							</g>
							<g class="st167">
								<polygon class="st197" points="873.2,170 876.1,183.4 875.9,183.4 873,170 								"/>
							</g>
							<g class="st167">
								<polygon class="st198" points="873.4,170 876.3,183.4 876.1,183.4 873.2,170 								"/>
							</g>
							<g class="st167">
								<polygon class="st199" points="873.5,170 876.4,183.4 876.3,183.4 873.4,170 								"/>
							</g>
							<g class="st167">
								<polygon class="st74" points="873.7,170 876.6,183.4 876.4,183.4 873.5,170 								"/>
							</g>
							<g class="st167">
								<polygon class="st73" points="873.8,170 876.8,183.4 876.6,183.4 873.7,170 								"/>
							</g>
							<g class="st167">
								<polygon class="st71" points="874,170 876.9,183.4 876.8,183.4 873.8,170 								"/>
							</g>
							<g class="st167">
								<polygon class="st69" points="874.2,170 877.1,183.4 876.9,183.4 874,170 								"/>
							</g>
							<g class="st167">
								<polygon class="st200" points="874.3,170 877.2,183.4 877.1,183.4 874.2,170 								"/>
							</g>
							<g class="st167">
								<polygon class="st67" points="874.5,170 877.4,183.4 877.2,183.4 874.3,170 								"/>
							</g>
							<g class="st167">
								<polygon class="st201" points="874.7,170 877.6,183.4 877.4,183.4 874.5,170 								"/>
							</g>
							<g class="st167">
								<polygon class="st202" points="874.8,170 877.7,183.4 877.6,183.4 874.7,170 								"/>
							</g>
							<g class="st167">
								<polygon class="st63" points="875,170 877.9,183.4 877.7,183.4 874.8,170 								"/>
							</g>
							<g class="st167">
								<polygon class="st62" points="875.1,170 878,183.4 877.9,183.4 875,170 								"/>
							</g>
							<g class="st167">
								<polygon class="st60" points="875.3,170 878.2,183.4 878,183.4 875.1,170 								"/>
							</g>
							<g class="st167">
								<polygon class="st203" points="875.5,170 878.4,183.4 878.2,183.4 875.3,170 								"/>
							</g>
							<g class="st167">
								<polygon class="st204" points="875.6,170 878.5,183.4 878.4,183.4 875.5,170 								"/>
							</g>
							<g class="st167">
								<polygon class="st55" points="875.8,170 878.7,183.4 878.5,183.4 875.6,170 								"/>
							</g>
							<g class="st167">
								<polygon class="st55" points="875.9,170 878.8,183.4 878.7,183.4 875.8,170 								"/>
							</g>
							<g class="st167">
								<polygon class="st205" points="876.1,170 879,183.4 878.8,183.4 875.9,170 								"/>
							</g>
							<g class="st167">
								<polygon class="st206" points="876.3,170 879.2,183.4 879,183.4 876.1,170 								"/>
							</g>
							<g class="st167">
								<polygon class="st207" points="876.4,170 879.3,183.4 879.2,183.4 876.3,170 								"/>
							</g>
							<g class="st167">
								<polygon class="st208" points="876.6,170 879.5,183.4 879.3,183.4 876.4,170 								"/>
							</g>
							<g class="st167">
								<polygon class="st209" points="876.7,170 879.7,183.4 879.5,183.4 876.6,170 								"/>
							</g>
							<g class="st167">
								<polygon class="st50" points="876.9,170 879.8,183.4 879.7,183.4 876.7,170 								"/>
							</g>
							<g class="st167">
								<polygon class="st210" points="877.1,170 880,183.4 879.8,183.4 876.9,170 								"/>
							</g>
							<g class="st167">
								<polygon class="st211" points="877.2,170 880.1,183.4 880,183.4 877.1,170 								"/>
							</g>
							<g class="st167">
								<polygon class="st212" points="877.4,170 880.3,183.4 880.1,183.4 877.2,170 								"/>
							</g>
							<g class="st167">
								<polygon class="st213" points="877.6,170 880.5,183.4 880.3,183.4 877.4,170 								"/>
							</g>
							<g class="st167">
								<polygon class="st214" points="877.7,170 880.6,183.4 880.5,183.4 877.6,170 								"/>
							</g>
							<g class="st167">
								<polygon class="st215" points="877.9,170 880.8,183.4 880.6,183.4 877.7,170 								"/>
							</g>
							<g class="st167">
								<polygon class="st216" points="878,170 880.9,183.4 880.8,183.4 877.9,170 								"/>
							</g>
							<g class="st167">
								<polygon class="st217" points="878.2,170 881.1,183.4 880.9,183.4 878,170 								"/>
							</g>
							<g class="st167">
								<polygon class="st218" points="878.4,170 881.3,183.4 881.1,183.4 878.2,170 								"/>
							</g>
							<g class="st167">
								<polygon class="st219" points="878.5,170 881.4,183.4 881.3,183.4 878.4,170 								"/>
							</g>
							<g class="st167">
								<polygon class="st220" points="878.7,170 881.6,183.4 881.4,183.4 878.5,170 								"/>
							</g>
							<g class="st167">
								<polygon class="st221" points="878.8,170 881.7,183.4 881.6,183.4 878.7,170 								"/>
							</g>
							<g class="st167">
								<polygon class="st222" points="879,170 881.9,183.4 881.7,183.4 878.8,170 								"/>
							</g>
							<g class="st167">
								<polygon class="st222" points="879.2,170 882.1,183.4 881.9,183.4 879,170 								"/>
							</g>
							<g class="st167">
								<polygon class="st223" points="879.3,170 882.2,183.2 882.2,183.4 882.1,183.4 879.2,170 								"/>
							</g>
							<g class="st167">
								<polygon class="st224" points="879.5,170 882.2,182.4 882.2,183.2 879.3,170 								"/>
							</g>
							<g class="st167">
								<polygon class="st225" points="879.6,170 882.2,181.7 882.2,182.4 879.5,170 								"/>
							</g>
							<g class="st167">
								<polygon class="st226" points="879.8,170 882.2,180.9 882.2,181.7 879.6,170 								"/>
							</g>
							<g class="st167">
								<polygon class="st227" points="880,170 882.2,180.2 882.2,180.9 879.8,170 								"/>
							</g>
							<g class="st167">
								<polygon class="st228" points="880.1,170 882.2,179.4 882.2,180.2 880,170 								"/>
							</g>
							<g class="st167">
								<polygon class="st229" points="880.3,170 882.2,178.7 882.2,179.4 880.1,170 								"/>
							</g>
							<g class="st167">
								<polygon class="st229" points="882.2,178.7 880.3,170 882.2,170 								"/>
							</g>
							<g class="st167">
								<polygon class="st6" points="868.3,173.4 870.5,183.6 868.3,183.6 								"/>
							</g>
							<g class="st167">
								<polygon class="st6" points="868.3,172.7 870.7,183.6 870.5,183.6 868.3,173.4 								"/>
							</g>
							<g class="st167">
								<polygon class="st6" points="868.3,171.9 870.8,183.6 870.7,183.6 868.3,172.7 								"/>
							</g>
							<g class="st167">
								<polygon class="st168" points="868.3,171.2 871,183.6 870.8,183.6 868.3,171.9 								"/>
							</g>
							<g class="st167">
								<polygon class="st169" points="868.3,170.5 871.2,183.6 871,183.6 868.3,171.2 								"/>
							</g>
							<g class="st167">
								<polygon class="st169" points="868.3,169.7 871.3,183.6 871.2,183.6 868.3,170.5 								"/>
							</g>
							<g class="st167">
								<polygon class="st170" points="868.4,169.5 871.5,183.6 871.3,183.6 868.3,169.7 868.3,169.5 								"/>
							</g>
							<g class="st167">
								<polygon class="st170" points="868.6,169.5 871.7,183.6 871.5,183.6 868.4,169.5 								"/>
							</g>
							<g class="st167">
								<polygon class="st171" points="868.8,169.5 871.8,183.6 871.7,183.6 868.6,169.5 								"/>
							</g>
							<g class="st167">
								<polygon class="st172" points="868.9,169.5 872,183.6 871.8,183.6 868.8,169.5 								"/>
							</g>
							<g class="st167">
								<polygon class="st173" points="869.1,169.5 872.1,183.6 872,183.6 868.9,169.5 								"/>
							</g>
							<g class="st167">
								<polygon class="st174" points="869.2,169.5 872.3,183.6 872.1,183.6 869.1,169.5 								"/>
							</g>
							<g class="st167">
								<polygon class="st174" points="869.4,169.5 872.5,183.6 872.3,183.6 869.2,169.5 								"/>
							</g>
							<g class="st167">
								<polygon class="st175" points="869.6,169.5 872.6,183.6 872.5,183.6 869.4,169.5 								"/>
							</g>
							<g class="st167">
								<polygon class="st176" points="869.7,169.5 872.8,183.6 872.6,183.6 869.6,169.5 								"/>
							</g>
							<g class="st167">
								<polygon class="st177" points="869.9,169.5 872.9,183.6 872.8,183.6 869.7,169.5 								"/>
							</g>
							<g class="st167">
								<polygon class="st178" points="870,169.5 873.1,183.6 872.9,183.6 869.9,169.5 								"/>
							</g>
							<g class="st167">
								<polygon class="st179" points="870.2,169.5 873.3,183.6 873.1,183.6 870,169.5 								"/>
							</g>
							<g class="st167">
								<polygon class="st180" points="870.4,169.5 873.4,183.6 873.3,183.6 870.2,169.5 								"/>
							</g>
							<g class="st167">
								<polygon class="st181" points="870.5,169.5 873.6,183.6 873.4,183.6 870.4,169.5 								"/>
							</g>
							<g class="st167">
								<polygon class="st182" points="870.7,169.5 873.7,183.6 873.6,183.6 870.5,169.5 								"/>
							</g>
							<g class="st167">
								<polygon class="st183" points="870.9,169.5 873.9,183.6 873.7,183.6 870.7,169.5 								"/>
							</g>
							<g class="st167">
								<polygon class="st184" points="871,169.5 874.1,183.6 873.9,183.6 870.9,169.5 								"/>
							</g>
							<g class="st167">
								<polygon class="st185" points="871.2,169.5 874.2,183.6 874.1,183.6 871,169.5 								"/>
							</g>
							<g class="st167">
								<polygon class="st186" points="871.3,169.5 874.4,183.6 874.2,183.6 871.2,169.5 								"/>
							</g>
							<g class="st167">
								<polygon class="st187" points="871.5,169.5 874.6,183.6 874.4,183.6 871.3,169.5 								"/>
							</g>
							<g class="st167">
								<polygon class="st188" points="871.7,169.5 874.7,183.6 874.6,183.6 871.5,169.5 								"/>
							</g>
							<g class="st167">
								<polygon class="st189" points="871.8,169.5 874.9,183.6 874.7,183.6 871.7,169.5 								"/>
							</g>
							<g class="st167">
								<polygon class="st190" points="872,169.5 875,183.6 874.9,183.6 871.8,169.5 								"/>
							</g>
							<g class="st167">
								<polygon class="st191" points="872.1,169.5 875.2,183.6 875,183.6 872,169.5 								"/>
							</g>
							<g class="st167">
								<polygon class="st192" points="872.3,169.5 875.4,183.6 875.2,183.6 872.1,169.5 								"/>
							</g>
							<g class="st167">
								<polygon class="st193" points="872.5,169.5 875.5,183.6 875.4,183.6 872.3,169.5 								"/>
							</g>
							<g class="st167">
								<polygon class="st194" points="872.6,169.5 875.7,183.6 875.5,183.6 872.5,169.5 								"/>
							</g>
							<g class="st167">
								<polygon class="st195" points="872.8,169.5 875.8,183.6 875.7,183.6 872.6,169.5 								"/>
							</g>
							<g class="st167">
								<polygon class="st196" points="872.9,169.5 876,183.6 875.8,183.6 872.8,169.5 								"/>
							</g>
							<g class="st167">
								<polygon class="st197" points="873.1,169.5 876.2,183.6 876,183.6 872.9,169.5 								"/>
							</g>
							<g class="st167">
								<polygon class="st198" points="873.3,169.5 876.3,183.6 876.2,183.6 873.1,169.5 								"/>
							</g>
							<g class="st167">
								<polygon class="st199" points="873.4,169.5 876.5,183.6 876.3,183.6 873.3,169.5 								"/>
							</g>
							<g class="st167">
								<polygon class="st74" points="873.6,169.5 876.6,183.6 876.5,183.6 873.4,169.5 								"/>
							</g>
							<g class="st167">
								<polygon class="st73" points="873.8,169.5 876.8,183.6 876.6,183.6 873.6,169.5 								"/>
							</g>
							<g class="st167">
								<polygon class="st71" points="873.9,169.5 877,183.6 876.8,183.6 873.8,169.5 								"/>
							</g>
							<g class="st167">
								<polygon class="st69" points="874.1,169.5 877.1,183.6 877,183.6 873.9,169.5 								"/>
							</g>
							<g class="st167">
								<polygon class="st200" points="874.2,169.5 877.3,183.6 877.1,183.6 874.1,169.5 								"/>
							</g>
							<g class="st167">
								<polygon class="st67" points="874.4,169.5 877.5,183.6 877.3,183.6 874.2,169.5 								"/>
							</g>
							<g class="st167">
								<polygon class="st201" points="874.6,169.5 877.6,183.6 877.5,183.6 874.4,169.5 								"/>
							</g>
							<g class="st167">
								<polygon class="st202" points="874.7,169.5 877.8,183.6 877.6,183.6 874.6,169.5 								"/>
							</g>
							<g class="st167">
								<polygon class="st63" points="874.9,169.5 877.9,183.6 877.8,183.6 874.7,169.5 								"/>
							</g>
							<g class="st167">
								<polygon class="st62" points="875,169.5 878.1,183.6 877.9,183.6 874.9,169.5 								"/>
							</g>
							<g class="st167">
								<polygon class="st60" points="875.2,169.5 878.3,183.6 878.1,183.6 875,169.5 								"/>
							</g>
							<g class="st167">
								<polygon class="st203" points="875.4,169.5 878.4,183.6 878.3,183.6 875.2,169.5 								"/>
							</g>
							<g class="st167">
								<polygon class="st204" points="875.5,169.5 878.6,183.6 878.4,183.6 875.4,169.5 								"/>
							</g>
							<g class="st167">
								<polygon class="st55" points="875.7,169.5 878.7,183.6 878.6,183.6 875.5,169.5 								"/>
							</g>
							<g class="st167">
								<polygon class="st55" points="875.8,169.5 878.9,183.6 878.7,183.6 875.7,169.5 								"/>
							</g>
							<g class="st167">
								<polygon class="st205" points="876,169.5 879.1,183.6 878.9,183.6 875.8,169.5 								"/>
							</g>
							<g class="st167">
								<polygon class="st206" points="876.2,169.5 879.2,183.6 879.1,183.6 876,169.5 								"/>
							</g>
							<g class="st167">
								<polygon class="st207" points="876.3,169.5 879.4,183.6 879.2,183.6 876.2,169.5 								"/>
							</g>
							<g class="st167">
								<polygon class="st208" points="876.5,169.5 879.5,183.6 879.4,183.6 876.3,169.5 								"/>
							</g>
							<g class="st167">
								<polygon class="st209" points="876.7,169.5 879.7,183.6 879.5,183.6 876.5,169.5 								"/>
							</g>
							<g class="st167">
								<polygon class="st50" points="876.8,169.5 879.9,183.6 879.7,183.6 876.7,169.5 								"/>
							</g>
							<g class="st167">
								<polygon class="st210" points="877,169.5 880,183.6 879.9,183.6 876.8,169.5 								"/>
							</g>
							<g class="st167">
								<polygon class="st211" points="877.1,169.5 880.2,183.6 880,183.6 877,169.5 								"/>
							</g>
							<g class="st167">
								<polygon class="st212" points="877.3,169.5 880.4,183.6 880.2,183.6 877.1,169.5 								"/>
							</g>
							<g class="st167">
								<polygon class="st213" points="877.5,169.5 880.5,183.6 880.4,183.6 877.3,169.5 								"/>
							</g>
							<g class="st167">
								<polygon class="st214" points="877.6,169.5 880.7,183.6 880.5,183.6 877.5,169.5 								"/>
							</g>
							<g class="st167">
								<polygon class="st215" points="877.8,169.5 880.8,183.6 880.7,183.6 877.6,169.5 								"/>
							</g>
							<g class="st167">
								<polygon class="st216" points="877.9,169.5 881,183.6 880.8,183.6 877.8,169.5 								"/>
							</g>
							<g class="st167">
								<polygon class="st217" points="878.1,169.5 881.2,183.6 881,183.6 877.9,169.5 								"/>
							</g>
							<g class="st167">
								<polygon class="st218" points="878.3,169.5 881.3,183.6 881.2,183.6 878.1,169.5 								"/>
							</g>
							<g class="st167">
								<polygon class="st219" points="878.4,169.5 881.5,183.6 881.3,183.6 878.3,169.5 								"/>
							</g>
							<g class="st167">
								<polygon class="st220" points="878.6,169.5 881.6,183.6 881.5,183.6 878.4,169.5 								"/>
							</g>
							<g class="st167">
								<polygon class="st221" points="878.7,169.5 881.8,183.6 881.6,183.6 878.6,169.5 								"/>
							</g>
							<g class="st167">
								<polygon class="st222" points="878.9,169.5 882,183.6 881.8,183.6 878.7,169.5 								"/>
							</g>
							<g class="st167">
								<polygon class="st222" points="879.1,169.5 882.1,183.6 882,183.6 878.9,169.5 								"/>
							</g>
							<g class="st167">
								<polygon class="st223" points="879.2,169.5 882.3,183.6 882.1,183.6 879.1,169.5 								"/>
							</g>
							<g class="st167">
								<polygon class="st224" points="879.4,169.5 882.4,183.4 882.4,183.6 882.3,183.6 879.2,169.5 								"/>
							</g>
							<g class="st167">
								<polygon class="st225" points="879.6,169.5 882.4,182.7 882.4,183.4 879.4,169.5 								"/>
							</g>
							<g class="st167">
								<polygon class="st226" points="879.7,169.5 882.4,181.9 882.4,182.7 879.6,169.5 								"/>
							</g>
							<g class="st167">
								<polygon class="st227" points="879.9,169.5 882.4,181.2 882.4,181.9 879.7,169.5 								"/>
							</g>
							<g class="st167">
								<polygon class="st228" points="880,169.5 882.4,180.5 882.4,181.2 879.9,169.5 								"/>
							</g>
							<g class="st167">
								<polygon class="st229" points="880.2,169.5 882.4,179.7 882.4,180.5 880,169.5 								"/>
							</g>
							<g class="st167">
								<polygon class="st229" points="882.4,179.7 880.2,169.5 882.4,169.5 								"/>
							</g>
						</g>
					</g>
				</g>
				<g>
					<g>
						<g>
							<defs>
								<path id="SVGID_7_" d="M876.1,168.3c-2.7-6.5-15.7-15.6-29.5-20.6c-9.4-3.4-23.5-2.7-29.5,3.6c-1.2,1.2-2.3,3-2.7,5.3
									c0.5,0.1,0.9,0.2,1.3,0.3c0.3-1.8,1.1-3.3,2.4-4.7c5.6-5.9,19.3-6.4,28.1-3.2c13.3,4.8,26.2,13.7,28.7,19.8
									c2.5,6-3.6,11.9-3.7,11.9l1.1,0.9C872.6,181.4,878.9,175.1,876.1,168.3z"/>
							</defs>
							<clipPath id="SVGID_8_">
								<use xlink:href="#SVGID_7_"  style="overflow:visible;"/>
							</clipPath>
							<g class="st230">
								<polygon class="st231" points="814.3,161.8 823.9,181.6 814.3,181.6 								"/>
							</g>
							<g class="st230">
								<polygon class="st231" points="814.3,157.3 826.1,181.6 823.9,181.6 814.3,161.8 								"/>
							</g>
							<g class="st230">
								<polygon class="st231" points="814.3,152.8 828.2,181.6 826.1,181.6 814.3,157.3 								"/>
							</g>
							<g class="st230">
								<polygon class="st231" points="814.3,148.2 830.4,181.6 828.2,181.6 814.3,152.8 								"/>
							</g>
							<g class="st230">
								<polygon class="st231" points="814.6,144.3 832.6,181.6 830.4,181.6 814.3,148.2 814.3,144.3 								"/>
							</g>
							<g class="st230">
								<polygon class="st231" points="816.8,144.3 834.8,181.6 832.6,181.6 814.6,144.3 								"/>
							</g>
							<g class="st230">
								<polygon class="st232" points="818.9,144.3 837,181.6 834.8,181.6 816.8,144.3 								"/>
							</g>
							<g class="st230">
								<polygon class="st233" points="821.1,144.3 839.2,181.6 837,181.6 818.9,144.3 								"/>
							</g>
							<g class="st230">
								<polygon class="st234" points="823.3,144.3 841.3,181.6 839.2,181.6 821.1,144.3 								"/>
							</g>
							<g class="st230">
								<polygon class="st235" points="825.5,144.3 843.5,181.6 841.3,181.6 823.3,144.3 								"/>
							</g>
							<g class="st230">
								<polygon class="st236" points="827.7,144.3 845.7,181.6 843.5,181.6 825.5,144.3 								"/>
							</g>
							<g class="st230">
								<polygon class="st237" points="829.8,144.3 847.9,181.6 845.7,181.6 827.7,144.3 								"/>
							</g>
							<g class="st230">
								<polygon class="st238" points="832,144.3 850.1,181.6 847.9,181.6 829.8,144.3 								"/>
							</g>
							<g class="st230">
								<polygon class="st239" points="834.2,144.3 852.2,181.6 850.1,181.6 832,144.3 								"/>
							</g>
							<g class="st230">
								<polygon class="st240" points="836.4,144.3 854.4,181.6 852.2,181.6 834.2,144.3 								"/>
							</g>
							<g class="st230">
								<polygon class="st241" points="838.6,144.3 856.6,181.6 854.4,181.6 836.4,144.3 								"/>
							</g>
							<g class="st230">
								<polygon class="st242" points="840.8,144.3 858.8,181.6 856.6,181.6 838.6,144.3 								"/>
							</g>
							<g class="st230">
								<polygon class="st243" points="842.9,144.3 861,181.6 858.8,181.6 840.8,144.3 								"/>
							</g>
							<g class="st230">
								<polygon class="st244" points="845.1,144.3 863.1,181.6 861,181.6 842.9,144.3 								"/>
							</g>
							<g class="st230">
								<polygon class="st245" points="847.3,144.3 865.3,181.6 863.1,181.6 845.1,144.3 								"/>
							</g>
							<g class="st230">
								<polygon class="st246" points="849.5,144.3 867.5,181.6 865.3,181.6 847.3,144.3 								"/>
							</g>
							<g class="st230">
								<polygon class="st247" points="851.7,144.3 869.7,181.6 867.5,181.6 849.5,144.3 								"/>
							</g>
							<g class="st230">
								<polygon class="st248" points="853.8,144.3 871.9,181.6 869.7,181.6 851.7,144.3 								"/>
							</g>
							<g class="st230">
								<polygon class="st249" points="856,144.3 874.1,181.6 871.9,181.6 853.8,144.3 								"/>
							</g>
							<g class="st230">
								<polygon class="st250" points="858.2,144.3 876.2,181.6 874.1,181.6 856,144.3 								"/>
							</g>
							<g class="st230">
								<polygon class="st251" points="860.4,144.3 878.4,181.6 876.2,181.6 858.2,144.3 								"/>
							</g>
							<g class="st230">
								<polygon class="st251" points="878.4,181.6 860.4,144.3 878.9,144.3 878.9,181.6 								"/>
							</g>
						</g>
					</g>
					<g>
						<g>
							<defs>
								<path id="SVGID_9_" d="M838.7,180.5c0.1,0.5,0.1,1,0.1,1.5c5.9,1.8,10.8,2.6,12.6,2.4l0.5-1.3
									C850.2,183.3,844.8,182.5,838.7,180.5z"/>
							</defs>
							<clipPath id="SVGID_10_">
								<use xlink:href="#SVGID_9_"  style="overflow:visible;"/>
							</clipPath>
							<g class="st252">
								<polygon class="st233" points="838.7,180.8 840.6,184.6 838.7,184.6 								"/>
							</g>
							<g class="st252">
								<polygon class="st234" points="840.8,180.5 842.7,184.6 840.6,184.6 838.7,180.8 838.7,180.5 								"/>
							</g>
							<g class="st252">
								<polygon class="st235" points="843,180.5 844.9,184.6 842.7,184.6 840.8,180.5 								"/>
							</g>
							<g class="st252">
								<polygon class="st236" points="845.1,180.5 847.1,184.6 844.9,184.6 843,180.5 								"/>
							</g>
							<g class="st252">
								<polygon class="st237" points="847.3,180.5 849.3,184.6 847.1,184.6 845.1,180.5 								"/>
							</g>
							<g class="st252">
								<polygon class="st238" points="849.5,180.5 851.5,184.6 849.3,184.6 847.3,180.5 								"/>
							</g>
							<g class="st252">
								<polygon class="st239" points="851.7,180.5 851.9,180.9 851.9,184.6 851.5,184.6 849.5,180.5 								"/>
							</g>
							<g class="st252">
								<polygon class="st240" points="851.9,180.9 851.7,180.5 851.9,180.5 								"/>
							</g>
						</g>
					</g>
				</g>
			</g>
		</g>
		<g>
			<g>
				<g>
					<path class="st253" d="M890.2,188c0.7-0.1,1.5-0.1,2.2,0.1c0.7,0.2,1.3,0.5,1.9,0.9c0.5,0.4,1,0.9,1.4,1.5
						c0.4,0.6,0.6,1.3,0.7,2s0.1,1.4-0.1,2.1c-0.2,0.7-0.5,1.3-0.9,1.9c-0.4,0.5-0.9,1-1.5,1.4c-0.6,0.4-1.3,0.6-2,0.7
						c-0.7,0.1-1.5,0.1-2.2-0.1c-0.7-0.2-1.3-0.5-1.9-0.9c-0.6-0.4-1-0.9-1.4-1.5c-0.4-0.6-0.6-1.3-0.7-2c-0.1-0.7-0.1-1.4,0.1-2.1
						c0.2-0.7,0.5-1.3,0.9-1.8c0.4-0.5,0.9-1,1.6-1.4C888.8,188.3,889.4,188.1,890.2,188z M890.5,190c-0.5,0.1-0.9,0.2-1.3,0.4
						c-0.4,0.2-0.7,0.5-1,0.8c-0.3,0.3-0.5,0.7-0.6,1.1c-0.1,0.4-0.2,0.9-0.1,1.3c0.1,0.5,0.2,0.9,0.5,1.2c0.2,0.4,0.5,0.7,0.9,0.9
						c0.4,0.3,0.8,0.4,1.2,0.5c0.4,0.1,0.9,0.1,1.4,0.1c0.5-0.1,0.9-0.2,1.3-0.5c0.4-0.2,0.7-0.5,1-0.9c0.3-0.3,0.5-0.7,0.6-1.1
						c0.1-0.4,0.2-0.9,0.1-1.3c-0.1-0.5-0.2-0.9-0.5-1.2c-0.2-0.4-0.5-0.7-0.9-0.9c-0.4-0.2-0.8-0.4-1.2-0.5
						C891.4,189.9,891,189.9,890.5,190z M874,194.3l23.8,10.3l0.3,2.4l-23.8-10.3L874,194.3z M880.4,203.1c0.7-0.1,1.5-0.1,2.2,0.1
						c0.7,0.2,1.3,0.5,1.9,0.9c0.6,0.4,1,0.9,1.4,1.5c0.4,0.6,0.6,1.3,0.7,2c0.1,0.7,0.1,1.4-0.1,2.1c-0.2,0.7-0.5,1.3-0.9,1.8
						c-0.4,0.5-0.9,1-1.6,1.4c-0.6,0.4-1.3,0.6-2,0.7c-0.7,0.1-1.5,0.1-2.2-0.1c-0.7-0.2-1.3-0.5-1.9-0.9c-0.6-0.4-1-0.9-1.4-1.5
						c-0.4-0.6-0.6-1.3-0.7-2c-0.1-0.7-0.1-1.5,0.1-2.1c0.2-0.7,0.5-1.3,0.9-1.8c0.4-0.5,0.9-1,1.6-1.4
						C879,203.5,879.7,203.3,880.4,203.1z M880.7,205.1c-0.5,0.1-0.9,0.2-1.3,0.4c-0.4,0.2-0.7,0.5-1,0.8c-0.3,0.3-0.5,0.7-0.6,1.1
						c-0.1,0.4-0.2,0.9-0.1,1.3c0.1,0.5,0.2,0.9,0.5,1.2c0.2,0.4,0.5,0.7,0.9,0.9c0.4,0.3,0.8,0.4,1.2,0.5c0.4,0.1,0.9,0.1,1.4,0.1
						c0.5-0.1,0.9-0.2,1.3-0.5c0.4-0.2,0.7-0.5,1-0.9c0.3-0.3,0.5-0.7,0.6-1.1c0.1-0.4,0.2-0.9,0.1-1.3c-0.1-0.5-0.2-0.9-0.5-1.2
						c-0.2-0.4-0.5-0.7-0.9-0.9c-0.4-0.3-0.8-0.4-1.2-0.5C881.7,205.1,881.2,205.1,880.7,205.1z"/>
				</g>
			</g>
			<g>
				<g>
					<path class="st253" d="M887.9,216.6l11.7-0.2l1.7,11.8l-1.9,0.3l-1.4-9.9c-1.2,0-2.4,0.1-3.6,0.1c-1.1,0-2.3,0-3.6,0
						c0.4,0.4,0.8,0.8,1,1.3c0.3,0.5,0.5,0.9,0.6,1.3c0.2,0.4,0.3,0.8,0.4,1.2c0.1,0.4,0.1,0.6,0.2,0.8c0.1,1,0.1,2-0.2,3
						c-0.3,0.9-0.7,1.8-1.3,2.5c-0.6,0.7-1.3,1.4-2.1,1.8c-0.8,0.5-1.8,0.8-2.8,1c-1,0.1-1.9,0.1-2.8-0.1c-0.9-0.2-1.8-0.6-2.6-1.1
						c-0.8-0.5-1.5-1.3-2-2.2c-0.6-0.9-0.9-2.1-1.1-3.4c-0.3-1.8,0-3.4,0.8-4.8c0.8-1.5,2.1-2.6,4-3.3l0.4,2.5
						c-1.2,0.5-2.1,1.3-2.6,2.3c-0.5,1-0.7,2-0.6,3.1c0.1,0.7,0.3,1.4,0.7,2c0.4,0.6,0.8,1.1,1.4,1.5c0.6,0.4,1.2,0.7,1.9,0.9
						c0.7,0.2,1.5,0.2,2.2,0.1c0.8-0.1,1.5-0.4,2.1-0.8c0.6-0.4,1.1-0.9,1.5-1.5c0.4-0.6,0.7-1.2,0.9-1.9c0.2-0.7,0.2-1.4,0.1-2
						c-0.1-0.8-0.4-1.5-0.9-2.3c-0.5-0.8-1.1-1.4-1.8-1.8L887.9,216.6z"/>
				</g>
			</g>
			<g>
				<g>
					<path class="st253" d="M894.2,255.1c-1.7,0.2-3.4,0.3-4.9,0c-1.5-0.2-2.9-0.7-4-1.4c-1.2-0.7-2.1-1.7-2.9-2.8
						c-0.8-1.2-1.3-2.6-1.5-4.2c-0.2-1.6-0.1-3.1,0.3-4.5c0.4-1.4,1.1-2.5,2-3.5c0.9-1,2.1-1.8,3.5-2.5c1.4-0.7,3-1.1,4.7-1.4
						c1.7-0.3,3.4-0.3,4.9,0c1.5,0.2,2.9,0.7,4,1.4c1.2,0.7,2.1,1.7,2.9,2.8c0.8,1.2,1.3,2.6,1.5,4.2c0.2,1.6,0.1,3.1-0.3,4.5
						c-0.4,1.3-1.1,2.5-2,3.5s-2.1,1.9-3.5,2.5C897.5,254.4,895.9,254.9,894.2,255.1z M893.9,252.7c1.5-0.2,2.9-0.6,4-1.2
						c1.2-0.6,2.1-1.3,2.8-2.1c0.7-0.8,1.3-1.7,1.6-2.7c0.3-1,0.4-2.1,0.2-3.1c-0.2-1.1-0.5-2.1-1.1-3c-0.6-0.9-1.3-1.6-2.3-2.2
						c-0.9-0.6-2-1-3.3-1.2c-1.3-0.2-2.7-0.2-4.2,0c-1.5,0.2-2.9,0.6-4,1.2c-1.2,0.6-2.1,1.3-2.8,2.1c-0.7,0.8-1.3,1.7-1.6,2.7
						c-0.3,1-0.4,2.1-0.2,3.1c0.2,1.1,0.5,2.1,1.1,3c0.6,0.9,1.3,1.6,2.3,2.2c0.9,0.6,2,1,3.3,1.2
						C890.9,252.9,892.3,252.9,893.9,252.7z"/>
				</g>
			</g>
		</g>
	</g>
</g>
</svg>
